<?xml version="1.0" encoding="UTF-8" standalone="no"?>
<!-- Created with Inkscape (http://www.inkscape.org/) -->

<svg
   width="600"
   height="600"
   viewBox="0 0 600 600"
   version="1.1"
   id="svg1"
   sodipodi:docname="sfu.svg"
   inkscape:export-filename="sfu_1024x1024.png"
   inkscape:export-xdpi="163.84"
   inkscape:export-ydpi="163.84"
   inkscape:version="1.4.3 (0d15f75, 2025-12-25)"
   xmlns:inkscape="http://www.inkscape.org/namespaces/inkscape"
   xmlns:sodipodi="http://sodipodi.sourceforge.net/DTD/sodipodi-0.dtd"
   xmlns="http://www.w3.org/2000/svg"
   xmlns:svg="http://www.w3.org/2000/svg">
  <sodipodi:namedview
     id="namedview1"
     pagecolor="#ffffff"
     bordercolor="#000000"
     borderopacity="0.25"
     inkscape:showpageshadow="2"
     inkscape:pageopacity="0.0"
     inkscape:pagecheckerboard="0"
     inkscape:deskcolor="#d1d1d1"
     inkscape:zoom="1.3116667"
     inkscape:cx="300"
     inkscape:cy="300"
     inkscape:window-width="1920"
     inkscape:window-height="1001"
     inkscape:window-x="-9"
     inkscape:window-y="-9"
     inkscape:window-maximized="1"
     inkscape:current-layer="svg1" />
  <defs
     id="defs1" />
  <g
     id="layer1"
     transform="matrix(1.2,0,0,1.2,-59.999993,-47.999993)">
    <circle
       style="fill:#003050;fill-opacity:1;stroke:#eaeaea;stroke-width:9.72398;stroke-linejoin:bevel;stroke-dasharray:none;stroke-opacity:1"
       id="path11-1"
       cx="300"
       cy="290"
       r="245.13802" />
    <circle
       style="fill:#000030;fill-opacity:1;stroke:#eaeaea;stroke-width:7.77918;stroke-linejoin:bevel;stroke-dasharray:none;stroke-opacity:1"
       id="path11"
       cx="300"
       cy="285"
       r="196.11041" />
    <path
       style="fill:#003050;fill-opacity:1;stroke:#003050;stroke-width:10;stroke-linejoin:bevel;stroke-dasharray:none;stroke-opacity:1"
       d="m 300,110 -150,39.93247 v 200 c 0,0 30.87884,36.21825 50,50 30.23321,21.79087 100,50 100,50 0,0 69.76679,-28.20913 100,-50 19.12116,-13.78175 50,-50 50,-50 v -200 z"
       id="path1" />
    <path
       style="fill:none;fill-opacity:1;stroke:#eaeaea;stroke-width:8;stroke-linejoin:bevel;stroke-dasharray:none;stroke-opacity:1"
       d="m 290,200 v -70 l -110,30 v 60 l 110,40 V 410 L 180,340 v -65"
       id="path2" />
    <path
       style="fill:none;stroke:#eaeaea;stroke-width:8;stroke-linejoin:bevel;stroke-dasharray:none;stroke-opacity:1"
       d="M 310,413 V 130 l 110,30 v 40"
       id="path3" />
    <path
       style="fill:none;stroke:#eaeaea;stroke-width:8;stroke-linejoin:bevel;stroke-dasharray:none;stroke-opacity:1"
       d="m 310,260 110,30"
       id="path4" />
    <path
       style="fill:none;stroke:#efefef;stroke-width:4;stroke-linejoin:bevel;stroke-dasharray:none;stroke-opacity:1"
       d="m 300,110 -150,39.93247 v 200 c 0,0 30.87884,36.21825 50,50 30.23321,21.79087 100,50 100,50 0,0 69.76679,-28.20913 100,-50 19.12116,-13.78175 50,-50 50,-50 v -200 z"
       id="path6" />
    <path
       style="fill:#003050;fill-opacity:1;stroke:#eaeaea;stroke-width:8;stroke-linejoin:bevel;stroke-dasharray:none;stroke-opacity:1"
       d="m 270,200 v -50 l -70,19.47395 V 210 l 70,25"
       id="path7" />
    <path
       style="fill:#003050;fill-opacity:1;stroke:#eaeaea;stroke-width:8;stroke-linejoin:bevel;stroke-dasharray:none;stroke-opacity:1"
       d="m 200,250 70,25 v 100 l -70,-45 v -40"
       id="path8" />
    <path
       style="fill:#003050;fill-opacity:1;stroke:#eaeaea;stroke-width:8;stroke-linejoin:bevel;stroke-dasharray:none;stroke-opacity:1"
       d="m 400,200 v -20 l -70,-20 v 80 l 90,24"
       id="path9" />
    <path
       style="fill:#003050;fill-opacity:1;stroke:#eaeaea;stroke-width:8;stroke-linejoin:bevel;stroke-dasharray:none;stroke-opacity:1"
       d="M 330,400 V 290 l 80,20"
       id="path10" />
    <path
       style="fill:none;fill-opacity:1;stroke:none;stroke-width:3.82847;stroke-linejoin:bevel;stroke-dasharray:none;stroke-opacity:1"
       id="path12"
       d="M 117.19436,179.45712 A 211.08577,211.08577 0 0 1 300,73.91423 211.08577,211.08577 0 0 1 482.80564,179.45711 L 300,285 Z" />
    <path
       style="font-size:25.5px;font-family:'Times New Roman';-inkscape-font-specification:'Times New Roman, ';fill:#eaeaea;stroke-width:2;stroke-linejoin:bevel"
       d="m 108.61762,160.33963 4.95633,3.08801 -0.24362,0.39101 q -1.54518,-0.69865 -2.70007,-0.7287 -1.1483,-0.0406 -2.21123,0.55876 -1.06294,0.59938 -1.66869,1.57162 -0.68476,1.09905 -0.45614,2.23906 0.21804,1.13342 1.07404,1.66674 0.65521,0.40823 1.47729,0.28961 1.20081,-0.16139 4.05592,-1.80067 2.32893,-1.3363 3.36447,-1.70335 1.03156,-0.3842 2.0572,-0.28798 1.03222,0.0857 1.88822,0.61898 1.62745,1.01398 2.02094,3.01955 0.3895,1.98843 -0.84833,3.97518 -0.38848,0.62351 -0.82597,1.11378 -0.25695,0.29468 -1.22981,1.12622 -0.97684,0.81438 -1.14803,1.08915 -0.1646,0.26419 -0.10485,0.52147 0.0663,0.24672 0.51694,0.63015 l -0.24362,0.39101 -4.91405,-3.06167 0.24362,-0.39101 q 1.71409,0.68653 2.77525,0.7022 1.05059,0.009 2.15043,-0.62598 1.10643,-0.64563 1.81752,-1.78696 0.82303,-1.32098 0.59962,-2.51643 -0.21683,-1.20601 -1.16793,-1.79859 -0.5284,-0.32922 -1.25172,-0.36911 -0.71673,-0.0505 -1.5636,0.27276 -0.57382,0.21462 -2.74456,1.41476 -2.18131,1.19355 -3.28148,1.59368 -1.09358,0.38957 -2.08353,0.33025 -0.98995,-0.0593 -1.87765,-0.6124 -1.54291,-0.9613 -1.9151,-2.83624 -0.38276,-1.88153 0.75632,-3.70977 0.7111,-1.14132 2.06788,-2.07107 0.63292,-0.42719 0.78436,-0.67025 0.17119,-0.27477 0.11802,-0.54262 -0.0572,-0.285 -0.488,-0.70014 z m 6.16745,-6.68783 5.40173,3.91934 2.17904,-3.0032 q 0.84821,-1.16903 0.78066,-1.818 -0.0833,-0.86041 -1.2085,-1.76909 l 0.27055,-0.37288 4.75675,3.45136 -0.27055,0.37288 q -1.10008,-0.58282 -1.48463,-0.64647 -0.48434,-0.0745 -0.9857,0.19242 -0.50136,0.26695 -1.1229,1.12357 l -2.17903,3.0032 4.5048,3.26856 q 0.90701,0.65809 1.16707,0.72372 0.24997,0.0583 0.51715,-0.0555 0.2571,-0.12112 0.66659,-0.68548 l 1.6818,-2.31791 q 0.84091,-1.15896 1.05989,-1.8 0.21899,-0.64104 0.0963,-1.46845 -0.17147,-1.07819 -0.95591,-2.64728 l 0.29248,-0.40311 2.57095,3.66526 -7.64125,10.53137 -0.37288,-0.27055 0.35099,-0.48374 q 0.35098,-0.48374 0.43362,-1.08527 0.0727,-0.43948 -0.16932,-0.78433 -0.23474,-0.35492 -1.23245,-1.07883 l -8.8786,-6.44205 q -1.30005,-0.94327 -1.7925,-0.90061 -0.66635,0.0703 -1.28058,0.91685 l -0.35098,0.48374 -0.37288,-0.27055 7.64124,-10.53137 3.10281,2.02055 -0.28517,0.39304 q -1.23189,-0.57077 -1.82512,-0.60124 -0.58592,-0.0405 -1.16317,0.3098 -0.44365,0.29343 -1.18219,1.3113 z m 15.96231,-22.08362 4.3311,3.1354 -0.28347,0.331 q -1.94238,-0.79463 -3.38873,-0.65626 -2.08647,0.19672 -3.62529,1.99357 -2.09767,2.44939 -1.25234,5.3864 0.72088,2.4698 2.98113,4.40548 1.83468,1.57122 3.95524,2.15779 2.12057,0.58657 3.80984,0.0497 1.68791,-0.55443 2.72459,-1.76494 0.60743,-0.70928 0.99468,-1.52516 0.38725,-0.81588 0.56378,-1.73026 l -3.70718,-3.17484 q -0.96462,-0.8261 -1.38738,-0.92586 -0.42411,-0.11731 -0.84269,0.0652 -0.41994,0.16495 -1.08407,0.94043 l -0.35937,-0.30777 4.25202,-4.96497 0.35937,0.30777 -0.20248,0.23642 q -0.63173,0.73766 -0.37483,1.43306 0.18793,0.48881 1.21875,1.37161 l 3.9247,3.36112 q -0.34506,1.58971 -0.9779,2.88377 -0.63284,1.29407 -1.74242,2.58969 -3.18293,3.71664 -7.21833,3.60492 -3.02655,-0.0838 -5.36245,-2.08426 -1.69282,-1.44974 -2.54727,-3.5913 -1.01802,-2.54394 -0.56938,-5.07771 0.38399,-2.11372 2.02811,-4.03351 0.59933,-0.69983 1.19876,-1.17006 0.60753,-0.4797 1.89427,-1.19737 0.65214,-0.35952 0.80603,-0.5392 0.15388,-0.17969 0.0984,-0.44032 -0.0568,-0.27818 -0.51486,-0.7196 z m 22.37606,1.8228 -14.54685,-5.72623 7.81452,8.13565 q 1.07817,1.12247 1.588,1.16796 0.69452,0.058 1.4129,-0.63201 l 0.43102,-0.41402 0.31914,0.33225 -4.23844,4.07115 -0.31914,-0.33225 0.43103,-0.41402 q 0.77226,-0.74177 0.64701,-1.51923 -0.0785,-0.47711 -1.06174,-1.5008 l -7.64202,-7.95605 q -0.77627,-0.80818 -1.30088,-0.99486 -0.37585,-0.13966 -0.88096,0.0175 -0.50476,0.13955 -1.25008,0.85545 l -0.31913,-0.33225 3.44822,-3.31212 13.56948,5.28386 -4.80525,-13.70216 3.44822,-3.31212 0.31914,0.33225 -0.42205,0.40539 q -0.78124,0.7504 -0.65599,1.52786 0.0785,0.47711 1.06174,1.5008 l 7.64202,7.95605 q 1.07816,1.12247 1.59698,1.15934 0.69451,0.058 1.41289,-0.63202 l 0.42205,-0.40538 0.31913,0.33225 -5.17233,4.96817 -0.31914,-0.33225 0.43103,-0.41401 q 0.78124,-0.75041 0.64702,-1.51924 -0.0785,-0.47711 -1.06174,-1.5008 l -7.81453,-8.13564 5.14507,14.75692 z m 3.13403,-24.16073 4.16871,5.2117 2.89755,-2.31767 q 1.12791,-0.90219 1.23491,-1.54582 0.14785,-0.8517 -0.69599,-2.02627 l 0.35976,-0.28777 3.67095,4.58941 -0.35976,0.28777 q -0.9061,-0.85373 -1.25999,-1.0171 -0.44723,-0.20032 -1.00144,-0.0759 -0.5542,0.12441 -1.38068,0.78549 l -2.89756,2.31767 3.47652,4.34633 q 0.69996,0.8751 0.9333,1.00735 0.22556,0.12253 0.51335,0.0837 0.28002,-0.0486 0.82453,-0.48413 l 2.23636,-1.78881 q 1.11819,-0.89441 1.49936,-1.45441 0.38118,-0.56 0.48236,-1.39031 0.12064,-1.08505 -0.21952,-2.806 l 0.38893,-0.31109 1.5067,4.21589 -10.16088,8.12742 -0.28777,-0.35977 0.46672,-0.37331 q 0.46672,-0.37332 0.70595,-0.93139 0.1867,-0.40445 0.0448,-0.80115 -0.1322,-0.40447 -0.90216,-1.36708 l -6.85192,-8.56626 q -1.00329,-1.25431 -1.48942,-1.34379 -0.66114,-0.10895 -1.4779,0.54435 l -0.46672,0.37332 -0.28776,-0.35976 10.16088,-8.12742 2.45575,2.77117 -0.37921,0.30332 q -1.03638,-0.87707 -1.60028,-1.06379 -0.55418,-0.1945 -1.20367,-0.01 -0.5056,0.16525 -1.48766,0.95077 z m 8.21659,-7.7893 3.79679,-2.565025 15.64178,4.714485 -5.45068,-8.068183 q -0.87128,-1.289672 -1.37624,-1.414346 -0.67449,-0.175433 -1.49988,0.382182 l -0.48492,0.327598 -0.25789,-0.381742 4.8698,-3.289927 0.2579,0.381743 -0.49524,0.334569 q -0.88729,0.599436 -0.89627,1.386866 -0.004,0.4835 0.79067,1.65968 l 7.96692,11.79276 -0.37143,0.25093 -16.83517,-5.03523 5.8201,8.61501 q 0.87127,1.28967 1.36592,1.42131 0.6848,0.16846 1.49988,-0.38218 l 0.49523,-0.33457 0.2579,0.38174 -4.8698,3.28993 -0.2579,-0.38174 0.48492,-0.3276 q 0.89761,-0.60641 0.90658,-1.39384 0.004,-0.4835 -0.79066,-1.65968 l -6.57288,-9.72928 q -1.08967,-0.30066 -1.56285,-0.31157 -0.46287,-0.0179 -1.20403,0.19734 -0.36193,0.10927 -0.97066,0.52052 z m 29.49384,-18.409051 2.12433,3.346569 -0.41097,0.234466 q -0.63725,-0.840575 -1.06486,-1.112677 -0.69313,-0.435987 -1.4221,-0.407139 -0.72432,0.01186 -1.63276,0.530154 l -2.06564,1.178499 6.39228,11.204181 q 0.77127,1.351856 1.25454,1.520523 0.67011,0.219757 1.52448,-0.267685 l 0.5083,-0.289997 0.2283,0.40015 -6.21854,3.547837 -0.22829,-0.40015 0.51911,-0.29617 q 0.93007,-0.53063 0.99856,-1.31513 0.0405,-0.48182 -0.66291,-1.714708 l -6.39228,-11.204182 -1.76282,1.005735 q -1.02741,0.586164 -1.37362,0.984378 -0.44514,0.52633 -0.5121,1.338628 -0.067,0.812297 0.42499,1.850454 l -0.41097,0.234466 -1.78907,-3.537844 z m 15.34748,5.074935 -5.88758,2.840249 0.12602,2.897609 q 0.0461,1.069881 0.25708,1.507244 0.16771,0.347648 0.62277,0.459904 0.46087,0.09563 1.59775,-0.356047 l 0.20017,0.414935 -4.78856,2.310069 -0.20017,-0.414934 q 0.87207,-0.628067 1.02259,-1.032463 0.31226,-0.814203 0.21229,-2.798145 l -0.68828,-15.095881 0.39251,-0.18935 11.39569,10.096366 q 1.37499,1.216793 2.11266,1.427725 0.74348,0.194308 1.70133,-0.19865 l 0.20017,0.414934 -5.99973,2.894349 -0.20017,-0.414934 q 0.88673,-0.483068 1.07631,-0.89248 0.20078,-0.414822 0.0222,-0.784898 -0.23804,-0.493435 -1.20056,-1.342407 z m -0.71434,-0.678388 -5.544,-4.901212 0.31807,7.422271 z m 14.24118,-17.056797 1.62641,3.614844 -0.44015,0.173589 q -0.51113,-0.922715 -0.89566,-1.252905 -0.62402,-0.530197 -1.34967,-0.605392 -0.71864,-0.09135 -1.69161,0.292377 l -2.21233,0.872514 4.73259,11.999895 q 0.57102,1.447863 1.02537,1.683594 0.63201,0.312893 1.54706,-0.04799 l 0.5444,-0.214702 0.16902,0.428567 -6.66018,2.626679 -0.16902,-0.428567 0.55598,-0.219271 q 0.99613,-0.39286 1.17557,-1.159624 0.10865,-0.471152 -0.41212,-1.791604 l -4.73259,-11.999895 -1.88801,0.744607 q -1.10038,0.433973 -1.49974,0.778859 -0.51552,0.457618 -0.69741,1.252117 -0.18189,0.794498 0.1573,1.892102 l -0.44015,0.17359 -1.26734,-3.756456 z m 14.32515,12.595941 0.14433,0.437503 -6.86997,2.266316 -0.14433,-0.437502 0.56757,-0.187234 q 0.99325,-0.327661 1.25144,-1.055283 0.15896,-0.471997 -0.31692,-1.914572 l -3.41703,-10.358162 q -0.40178,-1.217911 -0.68422,-1.557407 -0.21576,-0.256602 -0.65253,-0.348519 -0.61389,-0.112153 -1.18146,0.07508 l -0.56757,0.187235 -0.14433,-0.437503 6.86997,-2.266317 0.14433,0.437503 -0.5794,0.191135 q -0.98142,0.323759 -1.23961,1.051381 -0.17079,0.475899 0.3051,1.918474 l 3.41703,10.358161 q 0.40177,1.217912 0.68421,1.557407 0.21576,0.256603 0.66436,0.344619 0.60206,0.116054 1.16963,-0.07118 z m 5.36524,-18.973854 q 3.18088,-0.828874 6.13738,0.986983 2.96541,1.800668 3.90731,5.415315 0.97016,3.723086 -0.73887,6.793282 -1.70903,3.070196 -5.04655,3.939886 -3.37367,0.879108 -6.29979,-0.918931 -2.91407,-1.801178 -3.90621,-5.608606 -1.01411,-3.89177 0.99614,-7.040457 1.7456,-2.73232 4.95059,-3.567472 z m 2.6e-4,0.939218 q -2.19288,0.57142 -3.0944,2.543375 -1.12322,2.454337 -0.10597,6.358156 1.04237,4.000209 3.31531,5.711115 1.74032,1.296416 3.89706,0.734415 2.30132,-0.599678 3.32756,-2.784272 1.0383,-2.187734 0.0305,-6.055406 -1.09261,-4.19299 -3.28018,-5.823204 -1.75236,-1.293276 -4.08984,-0.684179 z m 10.0127,-3.112883 4.51778,-0.764667 12.29049,10.762686 -1.62491,-9.600272 q -0.25974,-1.534571 -0.6679,-1.856963 -0.5415,-0.438733 -1.52363,-0.272502 l -0.577,0.09766 -0.0769,-0.454233 5.79454,-0.980769 0.0769,0.454233 -0.58928,0.09974 q -1.05578,0.1787 -1.38969,0.891885 -0.20359,0.438564 0.0333,1.838093 l 2.37504,14.032112 -0.44195,0.0748 -13.24432,-11.548365 1.73505,10.25093 q 0.25974,1.534571 0.65562,1.859041 0.55378,0.436656 1.52363,0.272501 l 0.58927,-0.09974 0.0769,0.454233 -5.79453,0.980769 -0.0769,-0.454233 0.577,-0.09766 q 1.06806,-0.180778 1.40197,-0.893963 0.20359,-0.438564 -0.0333,-1.838092 l -1.95946,-11.5768 q -0.86769,-0.724487 -1.29398,-0.930156 -0.41401,-0.207748 -1.17781,-0.318406 -0.37472,-0.05023 -1.09903,0.07237 z m 31.84091,-3.332655 0.42932,6.622574 3.069,-0.198952 q 1.05613,-0.06847 1.5109,-0.559606 0.4664,-0.504373 0.53852,-1.894029 l 0.45973,-0.0298 0.36971,5.703117 -0.45973,0.0298 q -0.0761,-0.980777 -0.35436,-1.424396 -0.26588,-0.444424 -0.71526,-0.639884 -0.43775,-0.208691 -1.28266,-0.153919 l -3.069,0.198951 0.34313,5.293089 q 0.083,1.279785 0.27107,1.679342 0.14439,0.302572 0.55649,0.500449 0.56604,0.262761 1.16244,0.224099 l 0.60883,-0.03947 0.0298,0.459728 -7.2314,0.468784 -0.0298,-0.459728 0.5964,-0.03866 q 1.04371,-0.06766 1.4764,-0.707097 0.27242,-0.416934 0.17415,-1.932795 l -0.70559,-10.88438 q -0.083,-1.279785 -0.27107,-1.679342 -0.14439,-0.302572 -0.54406,-0.501254 -0.55361,-0.263567 -1.16244,-0.224099 l -0.59641,0.03866 -0.0298,-0.459729 12.53692,-0.81272 0.40156,3.692206 -0.43488,0.02819 q -0.39958,-1.159441 -0.86989,-1.677954 -0.4587,-0.531743 -1.10849,-0.739165 -0.63737,-0.208229 -1.95443,-0.122849 z m 19.8055,9.800574 -6.53666,-0.05227 -1.16677,2.655306 q -0.43119,0.980227 -0.43508,1.465807 -0.003,0.385974 0.3556,0.687679 0.37124,0.289355 1.59071,0.386267 l -0.004,0.460678 -5.31648,-0.04251 0.004,-0.460679 q 1.05981,-0.1783 1.37347,-0.474629 0.63977,-0.59256 1.42635,-2.416652 l 6.05012,-13.847576 0.43578,0.0035 5.76447,14.091462 q 0.69615,1.69898 1.26481,2.214041 0.5812,0.50271 1.61412,0.573227 l -0.004,0.460679 -6.66116,-0.05326 0.004,-0.460678 q 1.00891,-0.04174 1.35983,-0.32532 0.36336,-0.283481 0.36664,-0.694356 0.004,-0.547834 -0.48419,-1.73464 z m -0.34125,-0.924145 -2.80913,-6.845922 -2.99293,6.79953 z m 20.72772,-8.560502 0.0438,-0.458606 5.94947,0.568335 -0.0438,0.458605 -0.63214,-0.06038 q -0.99158,-0.09472 -1.60388,0.684812 -0.29699,0.359373 -0.43079,1.759979 l -0.65122,6.817111 q -0.24154,2.528528 -0.88352,3.880589 -0.6284,1.340851 -2.19928,2.203926 -1.5573,0.851864 -4.08583,0.610322 -2.75164,-0.262855 -4.08586,-1.353414 -1.33423,-1.090559 -1.77525,-2.75871 -0.29125,-1.141021 -0.001,-4.177734 l 0.62754,-6.569216 q 0.148,-1.549343 -0.23964,-2.07418 -0.37524,-0.523652 -1.32964,-0.614822 l -0.63213,-0.06039 0.0438,-0.458605 7.26332,0.693842 -0.0438,0.458605 -0.64452,-0.06157 q -1.04116,-0.09946 -1.55013,0.514838 -0.35249,0.41661 -0.48747,1.829611 l -0.69976,7.325295 q -0.0935,0.979185 -0.0408,2.260026 0.0651,1.282025 0.46866,2.033518 0.40351,0.751494 1.23972,1.294166 0.84862,0.543856 2.13767,0.666995 1.6485,0.157476 3.01862,-0.437096 1.37013,-0.594572 1.94769,-1.665107 0.59114,-1.081744 0.84689,-3.75901 l 0.65003,-6.804716 q 0.15038,-1.574133 -0.15879,-2.003917 -0.4313,-0.591546 -1.38569,-0.682717 z m 19.85254,14.914648 0.39019,0.155499 -2.19961,4.271161 -12.88481,-2.214557 0.078,-0.454036 0.62583,0.107564 q 1.05533,0.181383 1.62748,-0.42777 0.32518,-0.348389 0.56984,-1.771853 l 1.84546,-10.737336 q 0.26786,-1.558448 -0.008,-2.010182 -0.38578,-0.62219 -1.33067,-0.784591 l -0.62583,-0.107564 0.078,-0.454036 7.53454,1.294989 -0.078,0.454036 q -1.32318,-0.240054 -1.90741,-0.07516 -0.57195,0.167005 -0.83578,0.525939 -0.26384,0.358934 -0.51904,1.843754 l -1.79695,10.455098 q -0.17506,1.018513 -0.0441,1.432667 0.10296,0.283005 0.38865,0.458445 0.28569,0.17544 1.89323,0.451733 l 1.21485,0.208801 q 1.91431,0.32902 2.73591,0.179655 0.8216,-0.149365 1.58203,-0.751424 0.76254,-0.61433 1.66639,-2.050833 z m 16.16986,-8.603079 -0.74951,3.892368 -0.45988,-0.111258 q 0.11281,-1.048778 -0.0117,-1.54008 -0.20535,-0.792681 -0.75561,-1.271684 -0.53522,-0.488176 -1.5518,-0.734114 l -2.31149,-0.559215 -3.03323,12.537719 q -0.36598,1.512756 -0.12998,1.966971 0.33691,0.619543 1.29297,0.850841 l 0.56879,0.137608 -0.10833,0.447776 -6.95867,-1.683501 0.10833,-0.447776 0.5809,0.140536 q 1.04077,0.251793 1.62869,-0.272111 0.35994,-0.322854 0.69371,-1.702487 l 3.03323,-12.537719 -1.97263,-0.477236 q -1.1497,-0.278144 -1.67477,-0.225828 -0.68493,0.07769 -1.29081,0.622873 -0.60588,0.54518 -0.95995,1.638074 l -0.45988,-0.111258 1.12468,-3.801605 z m 19.54986,6.941679 0.15667,-0.433236 5.62035,2.032472 -0.15667,0.433236 -0.59716,-0.21595 q -0.93673,-0.338746 -1.72392,0.263686 -0.37715,0.27406 -0.85563,1.597185 l -2.32887,6.439987 q -0.8638,2.388649 -1.82235,3.538167 -0.94261,1.142043 -2.67897,1.586593 -1.72041,0.437076 -4.10906,-0.426724 -2.59942,-0.940019 -3.61992,-2.328563 -1.0205,-1.388545 -1.03207,-3.113971 0.002,-1.177605 1.03957,-4.046326 l 2.24419,-6.205805 q 0.52929,-1.463634 0.28461,-2.068488 -0.23297,-0.600621 -1.13457,-0.926663 l -0.59716,-0.21595 0.15667,-0.433236 6.86151,2.48131 -0.15667,0.433235 -0.60887,-0.220184 q -0.98356,-0.355683 -1.62951,0.112462 -0.44516,0.315669 -0.92787,1.650502 l -2.50248,6.920059 q -0.33451,0.925016 -0.60249,2.178621 -0.25626,1.25784 -0.0527,2.086161 0.20359,0.828321 0.87826,1.562192 0.68638,0.738107 1.90413,1.178476 1.5573,0.563164 3.03234,0.328641 1.47505,-0.234522 2.30108,-1.127434 0.84198,-0.900387 1.75659,-3.429545 l 2.32464,-6.428278 q 0.53776,-1.487052 0.3454,-1.980303 -0.27034,-0.680337 -1.17194,-1.006379 z m 7.10229,2.116182 4.15677,1.927747 4.03656,15.830285 4.09646,-8.833153 q 0.6548,-1.411949 0.50092,-1.908789 -0.19793,-0.668237 -1.10157,-1.087312 l -0.5309,-0.246207 0.19383,-0.417937 5.33152,2.472544 -0.19383,0.417937 -0.54218,-0.251445 q -0.97143,-0.450506 -1.65047,-0.05172 -0.41613,0.246213 -1.01331,1.533911 l -5.98754,12.910862 -0.40664,-0.188584 -4.37788,-17.017953 -4.3741,9.431819 q -0.65481,1.411949 -0.51222,1.903551 0.20922,0.673475 1.10157,1.087312 l 0.54219,0.251445 -0.19382,0.417937 -5.33152,-2.472544 0.19382,-0.417937 0.53089,0.246207 q 0.98272,0.455744 1.66176,0.05696 0.41613,-0.246213 1.01332,-1.53391 l 4.93985,-10.651744 q -0.30499,-1.088464 -0.53991,-1.499359 -0.22362,-0.405656 -0.79053,-0.929341 -0.28043,-0.253575 -0.94687,-0.562643 z m 16.97453,26.703207 -0.22005,0.40475 -6.35557,-3.455356 0.22005,-0.404743 0.52507,0.285468 q 0.91888,0.499569 1.62598,0.189553 0.45285,-0.207314 1.17841,-1.541873 l 5.20979,-9.582571 q 0.61257,-1.126718 0.66662,-1.565019 0.0393,-0.332948 -0.19277,-0.714215 -0.33858,-0.524215 -0.86365,-0.809683 l -0.52507,-0.285468 0.22005,-0.404744 6.35556,3.455353 -0.22005,0.404743 -0.53601,-0.291415 q -0.90794,-0.493622 -1.61504,-0.183606 -0.46378,0.201367 -1.18935,1.535926 l -5.20979,9.582571 q -0.61257,1.126718 -0.66662,1.565019 -0.0393,0.332948 0.20371,0.720162 0.32764,0.518268 0.85271,0.803738 z m 24.72605,-4.078639 -0.24538,0.389907 q -0.84495,-0.340504 -1.45371,-0.23813 -0.88348,0.164871 -1.98536,0.9573 l -12.6377,9.023962 -0.3899,-0.24538 2.39939,-15.687934 q 0.18589,-1.207065 0.14992,-1.523935 -0.0579,-0.492476 -0.33502,-0.917003 -0.25999,-0.428433 -0.88019,-0.892301 l 0.24538,-0.389906 5.83805,3.674077 -0.24538,0.389906 q -1.05026,-0.528557 -1.49786,-0.471876 -0.44759,0.05668 -0.68634,0.436048 -0.3316,0.5269 -0.54983,1.948996 l -1.63676,10.665718 8.57821,-6.150119 q 1.26459,-0.910708 1.56302,-1.384918 0.19233,-0.305602 0.0592,-0.771916 -0.12654,-0.476851 -0.78071,-1.050371 -0.0461,-0.0437 -0.15926,-0.144356 l 0.24539,-0.389906 z m 5.07451,4.917669 -3.99748,5.34416 2.97119,2.22249 q 1.15657,0.86513 1.80645,0.80702 0.86153,-0.0708 1.78648,-1.18265 l 0.36891,0.27595 -3.52018,4.70605 -0.3689,-0.27594 q 0.59875,-1.09149 0.66799,-1.47507 0.0816,-0.48321 -0.17807,-0.9884 -0.25962,-0.50519 -1.10711,-1.13912 l -2.9712,-2.22248 -3.33372,4.45679 q -0.67122,0.89734 -0.74062,1.15641 -0.0619,0.24911 0.048,0.51791 0.11738,0.25884 0.67572,0.67648 l 2.2932,1.71534 q 1.14661,0.85767 1.7844,1.08596 0.63779,0.22829 1.4669,0.11766 1.08056,-0.15577 2.66089,-0.9173 l 0.39882,0.29832 -3.70226,2.51736 -10.41913,-7.79361 0.27595,-0.3689 0.47858,0.35798 q 0.47858,0.35798 1.07885,0.44936 0.43838,0.0791 0.78671,-0.15789 0.3583,-0.22956 1.09664,-1.21663 l 6.5705,-8.78397 q 0.96208,-1.28619 0.92659,-1.77921 -0.0606,-0.667307 -0.89813,-1.293779 l -0.47858,-0.357984 0.27594,-0.368907 10.41912,7.79361 -2.06546,3.07309 -0.38885,-0.29086 q 0.58862,-1.22345 0.62771,-1.81618 0.0491,-0.58527 -0.29284,-1.16755 -0.28695,-0.44787 -1.29397,-1.20113 z m 11.63053,30.25901 -3.39038,-2.97007 0.90286,-9.70376 q -0.49406,-0.3997 -0.79376,-0.66225 -0.12175,-0.10666 -0.26224,-0.22973 -0.13228,-0.13243 -0.27392,-0.27307 l -3.23262,3.69008 q -1.05018,1.19881 -1.04229,1.71887 -0.005,0.72387 0.70669,1.34742 l 0.49638,0.43484 -0.30357,0.34653 -5.44147,-4.76687 0.30357,-0.34653 0.47765,0.41844 q 0.80545,0.70559 1.61144,0.48468 0.45102,-0.11804 1.40276,-1.20446 l 7.18723,-8.20435 q 1.05018,-1.19881 1.04229,-1.71887 -0.004,-0.73207 -0.72542,-1.36382 l -0.47765,-0.41844 0.30357,-0.34653 4.62665,4.05307 q 2.02299,1.7722 2.71575,2.90877 0.71032,1.13541 0.67789,2.51402 -0.0149,1.37745 -0.97479,2.47323 -1.02558,1.17072 -2.54839,1.35958 -1.51344,0.19707 -3.42675,-0.85002 l -0.56919,5.94055 q -0.20031,2.04264 0.0849,3.02085 0.28523,0.97821 1.22636,2.00131 z m -3.30055,-14.42892 q 0.17794,0.15589 0.30086,0.28012 0.13112,0.11486 0.21541,0.1887 1.81694,1.59169 3.42397,1.60903 1.61639,0.0255 2.68299,-1.19201 1.04198,-1.18944 0.94089,-2.5857 -0.0835,-1.39742 -1.31043,-2.47222 -0.54321,-0.47587 -1.6263,-1.11017 z m 23.61082,10.5417 -4.16169,4.0965 -0.32318,-0.32832 q 1.0407,-1.33889 1.34006,-2.45471 0.3081,-1.10694 -0.026,-2.28059 -0.33412,-1.17365 -1.13769,-1.99001 -0.90839,-0.92285 -2.07025,-0.96724 -1.15298,-0.0531 -1.87174,0.65437 -0.55016,0.54154 -0.62712,1.36856 -0.12398,1.20525 0.80198,4.3646 0.75446,2.5769 0.86909,3.66957 0.13225,1.09281 -0.20122,2.06749 -0.32473,0.98355 -1.04348,1.69105 -1.36653,1.34511 -3.40851,1.25855 -2.02437,-0.0864 -3.66646,-1.75464 -0.51534,-0.52354 -0.88967,-1.06357 -0.2264,-0.31876 -0.80731,-1.45913 -0.56329,-1.14024 -0.79039,-1.37095 -0.21836,-0.22184 -0.48249,-0.22393 -0.25538,0.007 -0.73358,0.3552 l -0.32318,-0.32832 4.1262,-4.06156 0.32318,0.32832 q -1.06844,1.50596 -1.33189,2.53401 -0.25458,1.01933 0.1056,2.2372 0.36891,1.22675 1.31224,2.18509 1.09182,1.1092 2.30636,1.17161 1.22327,0.0713 2.02189,-0.71482 0.44368,-0.43672 0.65166,-1.13064 0.21672,-0.68505 0.10055,-1.58403 -0.0744,-0.60811 -0.73351,-2.99935 -0.6502,-2.39998 -0.78189,-3.56323 -0.12296,-1.15437 0.16628,-2.10298 0.28923,-0.94861 1.03461,-1.68231 1.29554,-1.27524 3.20553,-1.19853 1.91886,0.068 3.42993,1.6031 0.94333,0.95834 1.52991,2.49497 0.2673,0.71528 0.46819,0.91937 0.2271,0.23071 0.49995,0.24167 0.29047,0.0111 0.79487,-0.31069 z m -5.05818,19.53497 -0.34519,0.30509 -4.79069,-5.42052 0.3452,-0.30508 0.39579,0.44782 q 0.69263,0.78369 1.46311,0.73418 0.49644,-0.04 1.63466,-1.04591 l 8.17276,-7.22313 q 0.96095,-0.84929 1.16163,-1.24268 0.15079,-0.29944 0.0631,-0.73708 -0.1389,-0.6084 -0.53468,-1.05622 l -0.39579,-0.44782 0.3452,-0.30509 4.79068,5.42052 -0.3452,0.30509 -0.40403,-0.45716 q -0.68438,-0.77436 -1.45487,-0.72485 -0.50469,0.0306 -1.6429,1.03658 l -8.17276,7.22313 q -0.96095,0.8493 -1.16164,1.24269 -0.15078,0.29943 -0.0549,0.7464 0.13065,0.59907 0.52644,1.04689 z m 22.53953,1.86195 -2.9959,2.59555 -0.29262,-0.37181 q 0.73717,-0.75447 0.9431,-1.2176 0.32877,-0.74994 0.19251,-1.46664 -0.11877,-0.71462 -0.76561,-1.5365 l -1.47082,-1.8688 -10.13654,7.9778 q -1.22304,0.96257 -1.31844,1.46547 -0.11832,0.69522 0.49003,1.46818 l 0.36193,0.45987 -0.36202,0.28492 -4.42784,-5.62598 0.36202,-0.28492 0.36963,0.46965 q 0.66225,0.84145 1.44826,0.79325 0.48251,-0.0312 1.59792,-0.90903 l 10.13654,-7.9778 -1.25519,-1.59484 q -0.73156,-0.92951 -1.17656,-1.21308 -0.58633,-0.36247 -1.39961,-0.30866 -0.81327,0.0538 -1.76733,0.69378 l -0.29262,-0.37181 3.23462,-2.29223 z m 8.08027,11.84392 3.25834,4.90595 -0.38376,0.25488 -0.1791,-0.26967 q -0.17911,-0.26968 -0.7621,-0.62984 -0.58299,-0.36015 -1.31142,-0.48919 -0.72843,-0.12904 -2.14783,-0.0832 l -7.59416,0.15603 -3.52648,2.34215 q -1.29649,0.86109 -1.42514,1.36505 -0.17385,0.68346 0.39102,1.53396 l 0.3031,0.45637 -0.38376,0.25488 -3.96788,-5.97425 0.38376,-0.25489 0.33066,0.49786 q 0.59242,0.89199 1.37976,0.90717 0.48345,0.008 1.66586,-0.77756 l 3.3294,-2.21127 3.3287,-7.77114 q 0.58254,-1.37342 0.67651,-1.79456 0.10086,-0.41078 -0.0459,-1.4194 -0.0341,-0.27633 -0.29582,-0.67047 l 0.38376,-0.25488 3.99543,6.01575 -0.38376,0.25488 -0.20666,-0.31116 q -0.32377,-0.48748 -0.8275,-0.75081 -0.49684,-0.25296 -0.95321,0.0501 -0.37339,0.248 -0.92815,1.52822 l -2.58305,5.94562 6.16787,-0.12052 q 1.38828,-0.0252 1.86539,-0.3421 0.29042,-0.19288 0.41527,-0.50001 0.13174,-0.29676 0.0702,-0.65946 -0.0512,-0.3696 -0.42314,-0.92969 z"
       id="text13"
       aria-label="SEGMENTATION FAULT UNIVERSITY" />
    <path
       style="fill:none;fill-opacity:1;stroke:none;stroke-width:2;stroke-linejoin:bevel;stroke-dasharray:none;stroke-opacity:1"
       id="path14"
       d="m 200.50816,-495.86127 a 115.22066,39.249084 0 0 1 99.78402,-19.62454 115.22066,39.249084 0 0 1 99.78401,19.62454"
       transform="scale(1,-1)" />
    <path
       style="font-size:40px;font-family:STXingkai;-inkscape-font-specification:STXingkai;fill:#eaeaea;stroke-width:2;stroke-linejoin:bevel"
       d="m 226.1052,484.14602 q 4.25193,-2.53792 4.56786,-3.65407 0.0654,-0.23093 -0.007,-0.41756 -0.061,-0.22512 -0.007,-0.41756 0.0654,-0.23093 0.35076,-0.35801 0.2854,-0.12707 0.51633,-0.0617 0.69278,0.1961 1.80528,1.25927 1.11249,1.06318 1.42255,2.02395 0.31006,0.96076 0.12486,1.61505 -0.30503,1.07767 -1.75087,0.75156 -0.39578,-0.0704 -1.44441,0.25631 -0.99925,0.29916 -1.36671,0.56929 -0.98183,0.67824 -2.92006,1.21048 -0.0102,0.32969 -0.1409,0.79155 -0.13073,0.46185 -0.33844,0.90192 2.01592,-0.21925 2.65789,-0.57797 0.69134,-0.38632 1.42262,-0.17933 0.76975,0.21788 1.43129,1.11184 0.67243,0.85548 0.56349,1.24036 -0.10894,0.38488 -0.64125,0.64992 -0.52141,0.22656 -2.59689,0.8031 -2.06458,0.53805 -2.8939,0.67745 -0.82931,0.13941 -1.39574,-0.0625 l -0.92377,1.94181 q 1.58237,-0.009 2.38266,-0.78059 0.29049,-0.29192 1.02684,-0.24978 0.73636,0.0421 1.35217,0.21645 0.61581,0.1743 1.18947,1.08496 0.61216,0.92156 0.49232,1.34493 -0.11983,0.42337 -1.15757,0.71163 -4.42546,1.24167 -5.78128,1.77247 -1.35581,0.53081 -1.5294,1.43782 2.92221,-0.33687 4.25187,-0.33465 1.36815,0.0131 1.81839,-0.10888 0.46114,-0.16047 0.73055,-0.0842 0.26942,0.0763 0.31443,0.50471 0.045,0.42846 -0.0421,0.73636 -0.0763,0.26942 -0.41104,0.42408 -0.33478,0.15467 -1.75668,0.62521 -1.4219,0.47053 -5.82048,1.47037 -0.94484,2.30999 -1.57813,3.95988 -0.64418,1.68839 -1.14453,1.54676 -0.73127,-0.20698 -1.18719,-4.61789 -0.65866,0.27085 -1.15901,0.12922 -0.50034,-0.14162 -0.54679,-1.15248 -0.0356,-1.04935 0.12786,-1.62667 0.32682,-1.15464 1.65576,-1.44362 1.36743,-0.2781 2.02538,-0.84015 0.66884,-0.60054 0.97387,-1.6782 l 1.82948,-6.75718 q 0.93108,-3.43632 0.92456,-3.85388 0.0429,-0.44516 -0.57948,-1.03702 -0.61143,-0.63035 -0.62448,-1.46548 0.0254,-0.82423 0.0581,-0.93969 0.20699,-0.73127 1.20768,-0.44803 1.03917,0.29414 2.51985,1.37839 z m 10.76306,19.84137 q 2.57354,3.09801 5.10572,5.02032 2.53218,1.9223 3.23801,2.95352 0.73342,1.0806 0.50465,1.88884 -0.23967,0.84674 -1.50977,0.48723 -1.23162,-0.3486 -3.13494,-1.26148 -1.87573,-0.8635 -2.3935,-1.3842 -0.51776,-0.52069 -1.84155,-2.59982 -1.2853,-2.06824 -2.15089,-3.26939 -3.08418,1.4966 -6.16322,0.62508 -1.00068,-0.28325 -2.15604,-0.90127 -1.10597,-0.64562 -1.02971,-0.91503 0.0654,-0.23093 1.18151,0.085 1.15464,0.32682 3.19743,-0.13425 2.08129,-0.45018 3.61141,-1.59679 -0.23817,-0.77413 -2.16616,-2.77485 -1.88949,-1.98982 -2.50021,-2.32897 -0.57223,-0.32826 -0.52866,-0.48221 0.0436,-0.15395 0.47204,-0.19897 0.47783,-0.0726 1.13213,0.1126 0.69278,0.19609 1.48504,0.6282 0.17431,-0.61581 0.38201,-1.05588 0.24619,-0.42917 0.45462,-0.57803 0.20842,-0.14887 0.35148,-0.0668 0.18154,0.093 0.33549,0.13653 0.19244,0.0545 0.5933,-0.0399 -0.81548,-0.93754 -0.68691,-2.27301 0.12858,-1.33546 0.29199,-1.91278 0.1743,-0.61581 0.69063,-0.67752 0.69206,-0.0951 1.21497,-1.94253 0.27235,-0.9622 -0.34489,-1.71891 -0.28103,-0.32897 -0.40301,-0.77922 -0.1111,-0.48873 -0.0239,-0.79663 0.15251,-0.53883 0.80681,-0.35364 0.69278,0.1961 1.54023,0.72697 0.4931,-0.56714 1.69497,-1.14153 1.24035,-0.56349 2.24978,-1.19234 1.04792,-0.61796 1.89465,-0.37829 1.2701,0.3595 1.91128,1.91284 0.65208,1.51486 0.41241,2.3616 -0.23966,0.84673 -1.45099,2.04201 -0.23021,0.22584 -0.35004,0.64921 -0.10894,0.38488 0.19968,0.76323 0.87433,0.28905 1.04641,1.0029 0.18298,0.67537 0.009,1.29118 -0.16341,0.57732 -1.0639,0.82129 -1.49887,0.44874 -4.00137,1.6527 1.05079,0.54685 1.44291,1.36456 0.4415,0.79011 0.24541,1.48289 -0.19609,0.69279 -0.82136,1.13938 -0.62527,0.44659 -1.20043,1.15679 -0.56427,0.67171 -1.77416,2.4494 z m 3.27544,-10.83762 q -0.48866,-2.09217 -0.29257,-2.78496 0.20698,-0.73127 0.61222,-1.28171 0.44372,-0.53955 0.55266,-0.92443 0.11983,-0.42337 0.11402,-0.54972 -1.58746,0.17424 -2.28024,-0.0219 -0.69278,-0.19609 -0.92952,-0.38781 -0.19824,-0.18083 -0.42917,-0.24619 -0.19244,-0.0545 -0.50543,0.0232 1.77403,1.95714 1.42542,3.18876 -0.0872,0.3079 -0.26217,0.6325 -0.16413,0.28612 -1.74148,2.33394 -1.56646,2.00933 -2.48149,3.03905 5.29183,-1.95258 6.21775,-3.02079 z m -5.19325,8.50721 q 1.13435,-1.21707 1.65433,-2.02604 0.51997,-0.80896 0.58534,-1.03989 0.0654,-0.23092 -0.12708,-0.28539 -0.19244,-0.0545 -0.36818,-0.0211 -0.13725,0.0443 -1.24035,0.56349 -1.05372,0.4916 -2.03627,0.87863 0.79879,0.84967 1.53221,1.93027 z m 42.42772,-0.56916 q 0.93565,-0.10467 1.859,-0.09 0.96725,-0.021 1.63957,0.0885 l 1.15389,0.11887 q 0.91516,0.0943 1.32535,0.0159 0.45408,-0.11407 0.49387,-0.10997 0.51726,0.0533 1.24337,0.81168 0.7302,0.71861 0.68101,1.19609 -0.0451,0.43768 -0.55125,0.66702 -0.50617,0.22934 -1.1428,0.16375 -0.63663,-0.0656 -1.66296,-0.25173 -0.98243,-0.22184 -2.81275,-0.4104 -1.79052,-0.18445 -3.773,-0.067 -1.93858,0.0818 -2.39266,0.19584 -0.45408,0.11407 -0.85438,0.87707 -0.3605,0.76709 -0.41209,2.04855 0.57345,-0.10177 1.46641,-0.57274 0.89297,-0.47098 1.47171,-1.01453 1.06152,-0.93615 2.25521,-0.81318 0.59684,0.0615 1.08541,0.39329 0.53245,0.29613 1.14739,0.96265 0.61494,0.66652 0.7331,1.08081 0.11817,0.41429 -0.0446,1.60388 -0.16275,1.18958 -0.31442,2.66179 l -0.25943,2.90873 q -0.23774,2.30778 -1.40993,4.31825 -1.17219,2.01046 -1.96798,1.92848 -0.55705,-0.0574 -0.7618,-0.80228 -0.66922,-2.48165 -1.41462,-3.44309 -1.68875,0.38899 -2.35407,0.60194 0.0128,1.04682 -0.42489,1.00173 -0.3979,-0.041 -1.25037,-1.1341 -0.85247,-1.09311 -0.89686,-2.22361 -0.0444,-1.1305 0.24254,-3.91576 0.28693,-2.78526 0.69252,-3.99004 0.44539,-1.20068 1.59058,-2.16842 -2.67938,0.24673 -5.04406,1.73223 -0.19315,0.70391 -0.79529,1.08421 0.52546,-0.0263 0.48857,0.33181 -0.0369,0.35811 -0.65253,1.25977 -0.61153,0.86187 -1.47361,2.9847 -0.81818,2.08715 -1.22498,3.69392 -0.3863,1.40783 -0.82398,1.36274 -0.43768,-0.0451 -1.53299,-1.12301 -1.05962,-1.03402 -1.23977,-2.01766 -0.14446,-0.93975 0.11497,-3.84848 -1.41432,0.45748 -2.01236,0.79799 -0.33881,0.16615 -0.69692,0.12926 -0.3581,-0.0369 -0.57105,-0.70221 -0.21294,-0.66533 -0.12276,-1.54069 0.0902,-0.87537 0.3658,-1.20888 0.27973,-0.3733 1.30726,-0.58914 1.02752,-0.21585 2.12883,-1.1479 1.1411,-0.92795 1.24767,-1.96247 -0.96844,0.42298 -1.4857,0.3697 -1.07432,-0.11068 -0.88576,-1.94099 0.18855,-1.83031 1.83341,-2.18362 1.76833,-0.38079 3.56076,-2.16652 -1.30605,0.18715 -1.86311,0.12977 -0.51726,-0.0533 -1.24866,-0.36991 -3.23085,3.64813 -4.62418,5.07285 -1.39333,1.42472 -2.92123,2.59431 -1.48811,1.17368 -1.78303,1.30415 -0.29492,0.13046 -0.65302,0.0936 -0.35811,-0.0369 -0.60794,-0.34411 -0.24574,-0.34701 -0.20475,-0.7449 0.041,-0.39789 0.28503,-0.81508 0.24403,-0.41719 0.59104,-0.66293 0.34701,-0.24573 0.51027,-0.26912 l 0.27852,0.0287 q 0.63663,0.0656 2.39047,-2.12623 4.20289,-5.2771 9.1068,-10.72324 0.63493,-0.69862 0.68412,-1.17609 0.0533,-0.51726 -0.29663,-0.63373 -0.30601,-0.15216 -0.28962,-0.31132 0.0164,-0.15916 0.42659,-0.23754 0.45408,-0.11407 1.4886,-0.007 1.07432,0.11067 1.49031,0.7567 0.41599,0.64603 0.3422,1.36224 -0.0738,0.71621 -0.7403,1.33114 -2.08325,1.8764 -3.20915,3.04719 2.46114,-0.47027 3.28273,-1.02902 0.82158,-0.55875 1.69695,-0.46858 0.87536,0.0902 1.30775,0.57705 0.43648,0.44708 0.3709,1.08371 -0.0943,0.91516 -1.11891,1.49321 -2.90653,1.67095 -3.0037,2.2239 0.84787,-0.0333 1.39143,0.54546 0.54355,0.57875 0.47387,1.25517 -0.0697,0.67642 -0.64023,1.14039 -0.56645,0.42419 -1.25757,1.27786 0.54476,0.17675 1.10181,0.23414 1.74084,-0.50426 4.76723,-0.99673 -0.29252,-0.67352 -0.31881,-1.19898 -0.69981,-0.23294 -1.40253,-0.82808 -0.70271,-0.59515 -0.95254,-0.90236 -0.20595,-0.34291 -0.17725,-0.62144 0.0533,-0.51726 0.7461,-0.60674 0.7326,-0.0854 1.1112,-0.24743 0.3786,-0.16206 1.27977,-0.71261 0.10827,-0.27033 0.13696,-0.54885 0.11477,-1.11411 -0.63473,-2.03576 -0.32121,-0.395 -0.29252,-0.67353 0.0328,-0.31831 0.30842,-0.65182 0.27563,-0.33351 0.67352,-0.29252 0.39789,0.041 1.38733,0.58524 0.99354,0.50447 1.1187,1.24118 0.12517,0.7367 0.0994,1.37743 1.23878,-0.31472 2.98661,-0.49656 0.84978,-2.00347 1.00144,-3.47568 0.082,-0.79579 -0.15556,-1.22238 -0.19774,-0.42248 -0.15675,-0.82038 0.0861,-0.83558 0.92165,-0.7495 0.59684,0.0615 1.5055,0.99954 0.94845,0.94215 0.82958,2.09604 -0.11477,1.11411 -0.91246,3.0023 1.51609,0.11598 1.8648,0.63444 0.3885,0.52256 0.31471,1.23877 -0.0738,0.71621 -0.77479,0.88526 -0.65713,0.13337 -2.81805,0.0314 -1.5303,1.97358 -2.07985,3.40479 z m -0.95765,-3.19495 q -0.28142,-0.39089 -0.91805,-0.45648 -0.59684,-0.0615 -1.09601,0.49027 -0.50857,1.03333 -0.57825,1.70975 -0.0697,0.67642 -0.008,1.24576 0.42129,0.20425 2.60001,-2.9893 z m -0.8245,16.2008 q 0.30602,0.15216 0.46518,0.16855 0.15916,0.0164 0.20714,-0.0591 0.0521,-0.11527 0.17796,-0.94675 0.16565,-0.82738 0.26813,-1.82211 0.10247,-0.99474 0.14996,-2.23641 0.0873,-1.23757 0.0364,-1.5243 -0.0468,-0.32651 -0.28552,-0.3511 -0.19895,-0.0205 -1.02753,0.21584 -0.82858,0.23634 -1.54479,0.16255 -0.71621,-0.0738 -1.01813,-0.26573 -0.25803,-0.22764 -0.41719,-0.24403 -0.15915,-0.0164 -0.52955,0.0661 l -0.22835,1.82621 q 0.51317,0.0931 1.32535,0.0159 0.81219,-0.0772 1.27446,-0.27083 0.46638,-0.23343 0.94385,-0.18425 0.51727,0.0533 0.73021,0.71862 0.25273,0.66942 0.21174,1.06731 -0.041,0.3979 -0.41959,0.55995 -0.3786,0.16206 -1.85201,0.41239 -1.43362,0.25443 -2.43655,0.23154 -0.0931,0.51316 -0.0586,0.95904 0.0784,0.41019 0.25684,0.62963 0.18255,0.17966 0.69981,0.23294 0.55705,0.0574 1.08661,-0.009 0.52956,-0.0661 1.00703,-0.0169 0.51727,0.0533 0.97714,0.66363 z m -10.23827,-7.569 q -1.25397,0.0719 -2.03576,0.63472 -1.26407,2.12164 -1.42802,3.71322 -0.0369,0.3581 -0.0422,0.79988 1.23007,-1.40132 3.50597,-5.14782 z m 43.67956,-6.51187 q -2.17735,-0.79396 -2.23168,-3.35338 -0.008,-0.39991 0.0213,-0.88065 0.0689,-0.52159 0.0622,-0.84151 -0.008,-0.35992 -0.17185,-0.55648 -0.16421,-0.19656 -0.81171,-0.54289 -0.64749,-0.34634 -0.66532,-1.18615 -0.0178,-0.83981 2.0617,-0.88396 1.27971,-0.0272 2.09396,0.6357 0.81341,0.62287 0.83209,1.50267 0.006,0.27994 -0.26041,0.92574 -0.26635,0.6458 -0.26041,0.92574 0.005,0.23994 0.28503,0.234 0.31993,-0.007 1.67028,-0.47556 1.3895,-0.50961 2.20554,-1.64719 0.85603,-1.13842 0.84754,-1.53833 -0.008,-0.39991 -0.28843,-0.39397 -0.23995,0.005 -0.83302,0.33776 -0.59307,0.33266 -1.3529,0.34879 -0.75983,0.0161 -1.65322,-0.60504 -0.89423,-0.66117 -0.90527,-1.18105 -0.008,-0.35992 0.54969,-0.49178 0.55647,-0.17185 2.2608,-0.9282 1.70433,-0.75634 2.42417,-0.77163 0.71984,-0.0153 1.28566,0.25277 0.56581,0.26805 1.54343,1.08749 1.01675,0.77859 1.18266,1.05513 0.16506,0.23655 0.171,0.51649 0.0153,0.71984 -0.96496,1.66086 -0.98025,0.94101 -0.97176,1.34092 0.008,0.39991 0.37435,0.67221 0.36501,0.2323 0.3752,0.7122 0.009,0.4399 -0.38208,0.8483 -0.39142,0.4084 -1.30697,0.62788 -0.91639,0.17949 -2.88538,1.66162 -0.82707,0.61769 -2.49735,1.09325 -1.6303,0.47471 -1.95022,0.4815 -0.27994,0.006 -0.28334,-0.15402 -8.5e-4,-0.04 0.11743,-0.12252 0.15827,-0.0834 0.31229,-0.36671 z m -10.69414,-9.97526 q 2.79937,-0.0594 3.88591,0.23758 1.12654,0.29615 1.66426,1.12493 0.53686,0.78878 0.55384,1.5886 0.017,0.79982 -0.57015,1.41242 -0.58798,0.57261 -1.18784,0.58534 -0.59987,0.0127 -0.80152,-0.063 -0.2025,-0.11573 -0.40246,-0.11148 -0.8798,0.0187 -2.77729,1.0992 -1.89834,1.04052 -3.72859,1.51948 -1.83109,0.43896 -2.2659,0.68825 -0.39482,0.24843 -1.14021,0.94441 -0.70626,0.65514 -0.82623,0.65769 -0.11997,0.003 -0.12082,-0.0374 -0.007,-0.31992 1.44401,-1.71103 1.44995,-1.4311 6.25923,-4.81394 0.35482,-0.24759 0.50884,-0.53092 0.19402,-0.28418 0.11149,-0.40246 -0.41095,-0.51139 -0.86528,-1.1819 -0.4152,-0.71135 -0.41774,-0.83132 -0.003,-0.15996 0.67645,-0.1744 z m 14.59932,16.7739 q 2.19696,-0.16666 4.38967,-0.53329 2.23185,-0.40746 2.71175,-0.41765 0.99977,-0.0212 1.89061,0.47998 0.88999,0.46121 1.25755,0.81349 0.40755,0.35143 0.42198,1.03127 0.0136,0.63986 -0.33869,1.00742 -0.35313,0.32757 -1.47287,0.35134 -1.07976,0.0229 -2.68789,-0.34302 -1.60813,-0.36595 -2.68789,-0.34303 -1.03976,0.0221 -4.0306,0.48566 -0.42725,2.48963 -0.92421,3.58043 -0.45697,1.08994 -1.98775,2.48275 -1.52993,1.43279 -2.91688,2.06237 -1.38695,0.62958 -2.90661,0.66185 -0.59986,0.0127 -0.61175,-0.54714 -0.011,-0.51988 0.34634,-0.6475 1.54861,-0.55299 3.2717,-2.30996 1.7231,-1.75697 2.03887,-3.84415 -0.75728,0.13611 -1.70603,0.67637 -0.9496,0.50027 -2.37908,1.01072 -1.43034,0.47047 -2.0302,0.4832 -0.59987,0.0127 -0.616,-0.74709 -0.005,-0.23994 0.0273,-0.60071 -0.88159,1.81912 -1.08078,3.74378 -0.15921,1.92381 -0.58467,2.613 -0.38548,0.68834 -0.90536,0.69937 -0.9198,0.0195 -1.71443,-1.60397 -0.75465,-1.62435 -0.80305,-3.90383 -0.0161,-0.75983 0.0894,-1.44223 0.14468,-0.72323 0.19835,-1.96465 0.0682,-2.442 0.315,-4.00759 0.24598,-1.60558 0.24089,-1.84553 -0.006,-0.27993 -0.16591,-0.27654 -0.11997,0.003 -0.5097,0.49093 -2.45915,2.89285 -3.73886,2.92002 -0.63985,0.0136 -1.85911,-0.88074 -1.21926,-0.89432 -1.75867,-1.80308 -0.50027,-0.94959 -0.51385,-1.58945 -0.0144,-0.67984 0.38547,-0.68833 0.15997,-0.003 0.24335,0.15487 0.70701,1.26527 2.06671,1.23641 0.99977,-0.0212 2.2659,-0.68825 1.30612,-0.66788 2.28297,-1.76886 1.28913,-1.46769 2.36889,-1.49061 1.07976,-0.0229 1.89316,0.59995 0.85255,0.58203 0.87208,1.50183 0.0187,0.8798 -0.32342,1.72725 -1.06456,2.62319 -1.42626,4.43127 -0.36255,1.76809 -0.31925,3.80763 0.004,0.19996 0.16421,0.19656 0.08,-0.002 0.19825,-0.0842 0.11743,-0.12252 0.65608,-1.13418 0.53865,-1.01167 1.22622,-2.54661 0.68673,-1.57493 1.1386,-2.90482 0.15232,-0.36331 0.31229,-0.36671 0.27993,-0.006 0.29691,0.79388 0.0161,0.75983 -0.40084,1.84892 -0.37699,1.08825 -0.74124,2.77636 l 3.09892,-1.02601 q 3.45629,-1.15362 3.69454,-1.23869 0.23825,-0.0851 0.35313,-0.32757 0.11488,-0.2425 0.0213,-0.88065 -1.19209,0.38539 -2.26166,0.8882 -1.07041,0.46283 -1.23038,0.46622 -0.15996,0.003 -0.16166,-0.0766 -0.004,-0.19996 2.44209,-1.81225 -1.81403,-0.64164 -2.5483,-1.3062 -0.69513,-0.70541 -0.70447,-1.14531 -0.0102,-0.47989 0.46715,-0.61005 1.47203,-0.39133 3.97533,-1.20465 2.5033,-0.81332 4.04937,-1.48628 0.51478,-0.25099 1.23462,-0.26627 0.75983,-0.0161 1.36988,0.45102 0.65005,0.46631 0.66278,1.06618 0.0119,0.55987 -0.45612,1.12993 -0.42886,0.52923 -1.18359,0.7853 -0.75559,0.21609 -1.78007,0.958 -0.58119,0.89254 -0.47149,2.29052 z m 1.07016,5.17846 q 2.51943,-0.0535 4.74525,1.13953 2.22583,1.19303 2.25979,2.79267 0.0178,0.83981 -0.40849,1.489 -0.42632,0.6492 -0.9462,0.66024 -0.47989,0.0102 -1.12993,-0.45612 -0.61006,-0.46716 -1.95778,-1.75885 -1.34687,-1.25169 -2.40956,-2.30937 -1.02355,-1.09852 -1.02694,-1.25849 -0.006,-0.27993 0.87386,-0.29861 z m 32.85477,-20.0904 q 0.96466,0.74124 1.9529,0.58837 0.98825,-0.15288 1.72708,-0.34812 0.73273,-0.23478 1.12802,-0.29593 1.26496,-0.19568 2.23857,0.3418 1.01314,0.53136 1.17825,1.59866 0.0795,0.51389 -0.0876,0.74212 -0.12755,0.22211 -1.36477,0.85873 -2.28901,1.16361 -4.70143,3.88439 -2.41853,2.68125 -3.53214,5.68683 -0.49316,6.75479 -2.01844,8.40739 -1.52529,1.65261 -6.54558,2.42922 -2.01602,0.31186 -2.15055,-0.55779 -0.0795,-0.51389 0.59164,-1.67008 0.67114,-1.15619 1.02691,-1.21123 0.3953,-0.0611 0.4381,0.21556 0.0428,0.27671 4.4e-4,0.52612 -0.003,0.24329 0.0461,0.55953 0.0489,0.31624 0.36516,0.26732 0.31623,-0.0489 1.67161,-1.23001 1.3949,-1.1872 1.99593,-2.53492 0.60103,-1.34773 0.91837,-3.74441 -3.48845,-0.31035 -4.86107,-1.59562 -1.33921,-1.33091 -1.40648,-1.76574 -0.0673,-0.43483 0.36757,-0.50209 3.30216,-0.63226 6.99089,-4.52189 0.30183,-2.75857 0.4071,-7.83433 -2.1975,-2.16956 -2.35649,-3.19733 -0.18345,-1.1859 1.16056,-1.39381 0.98825,-0.15287 2.84986,0.36866 1.90114,0.51542 2.15186,2.13614 0.0917,0.59295 -0.18237,3.79246 z m -3.76734,-2.89813 q -0.14392,-1.19201 -0.53922,-1.13086 -0.19764,0.0306 -0.14261,0.38635 0.055,0.35576 0.68183,0.74451 z m 5.03688,4.56363 q -0.64515,-0.50734 -1.39337,-0.63445 -0.0419,0.77553 -0.15966,1.84611 0.38591,-0.3835 1.55303,-1.21166 z m 2.282,12.39686 q 1.02777,-0.15899 3.84422,0.25531 2.81032,0.37478 4.28275,0.99699 1.47243,0.62222 2.19095,1.60391 0.75194,0.93605 1.00266,2.55677 0.25683,1.66026 -0.69189,1.80702 -0.39529,0.0611 -1.6395,-0.39399 -1.20467,-0.46126 -3.74812,-1.72731 -2.50392,-1.27217 -4.97769,-2.8728 -0.9402,-0.58312 -1.68843,-0.71023 -0.75434,-0.16664 -2.76752,-0.0981 -0.48047,0.0339 -0.49882,-0.0847 -0.0245,-0.15812 1.68428,-0.62483 1.74215,-0.51235 3.00711,-0.70803 z m 31.46144,-24.17491 q 1.50937,-0.87098 2.66901,-1.31012 2.39408,-0.90661 4.49841,-0.20647 2.10433,0.70014 2.60014,2.0094 0.21248,0.56112 0.0175,1.06269 -0.17177,0.44999 -0.69547,0.64831 l -0.53788,0.16091 q -0.4863,0.18416 -1.09788,0.71516 -0.62575,0.4936 -0.92391,0.94868 -0.51242,0.79286 -1.14835,1.03368 -0.59852,0.22665 -1.11316,0.33599 0.33379,0.42963 0.51795,0.91593 0.39664,1.04742 -0.004,1.79778 -1.4846,2.74357 -1.30045,3.22987 0.085,0.22444 0.45509,0.29815 0.35991,-0.17906 0.73399,-0.32072 1.75815,-0.66579 3.2861,-0.13233 1.51378,0.49605 1.86793,1.43124 0.35414,0.93519 -0.20986,1.70481 -0.56399,0.76961 -1.91067,1.27958 1.19544,4.85103 0.81891,7.13222 -0.32496,2.30443 -2.19534,3.01272 -0.82297,0.31165 -2.14352,0.21291 -1.28314,-0.1129 -2.78276,-0.57154 -1.48545,-0.42124 -2.85469,-1.10034 -1.33183,-0.69327 -2.11561,-1.29467 -0.78378,-0.60141 -0.96793,-1.08771 -0.46747,-1.23445 0.59368,-3.17609 1.06115,-1.94164 4.41545,-4.15285 -0.26295,-0.2426 -0.50377,-0.87853 -0.24082,-0.63593 -0.2158,-1.58639 0.0483,-1.00203 0.44049,-1.32165 0.39223,-0.31962 0.58724,-0.82119 0.19501,-0.50157 0.12418,-0.6886 -0.0708,-0.18704 -0.4449,-0.0454 -0.37408,0.14165 -1.10187,0.93052 -0.72779,0.78887 -1.19772,1.69395 -0.46993,0.90508 -1.10586,1.1459 -0.63593,0.24082 -1.15166,0.008 -0.47833,-0.24658 -0.67665,-0.77029 -0.21249,-0.56112 -0.24302,-1.31945 -0.0447,-0.79574 0.0947,-1.10518 0.1627,-0.36101 0.63483,-0.58257 1.22936,-0.59386 3.36847,-2.17381 2.12494,-1.61735 3.53294,-3.43371 1.408,-1.81635 1.66764,-2.59902 0.25965,-0.78268 0.14632,-1.08194 -0.11332,-0.29926 -0.89888,-0.002 -0.78556,0.29748 -2.01382,1.2331 -1.22826,0.93561 -2.28254,2.10475 -1.01688,1.15498 -2.422,2.4142 -1.38187,1.20765 -3.77774,3.01315 -2.35846,1.79133 -2.78657,4.04927 -0.3907,2.24378 0.42227,6.08481 0.26118,1.14149 -0.18772,1.31148 -0.56111,0.21248 -1.94672,-1.18755 -1.34821,-1.41419 -1.90067,-2.87309 -0.24082,-0.63593 0.029,-1.16583 0.29306,-0.58147 0.3566,-1.20434 0.0635,-0.62286 -0.10578,-2.3124 -0.13191,-1.7037 0.58062,-2.87174 0.71252,-1.16804 2.0966,-1.69217 0.4489,-0.16999 0.92612,-0.26516 -2.00848,-1.46356 -2.94342,-3.93247 -0.28332,-0.74815 -0.39376,-1.60454 -0.0872,-0.90796 0.0998,-0.97879 0.18703,-0.0708 0.53897,0.18085 0.35194,0.25167 0.61379,0.15251 0.26186,-0.0992 0.58215,-0.94758 0.34354,-0.89999 0.49317,-0.95665 0.14963,-0.0567 0.2063,0.093 0.0799,0.0981 0.30655,0.69658 0.21249,0.56111 1.36059,2.35048 1.14811,1.78938 1.97549,2.84476 1.38586,-1.42302 2.95655,-3.60038 -2.66943,-0.27228 -4.00058,-2.2062 -1.33116,-1.93391 -1.74197,-3.01873 -0.24081,-0.63593 0.13326,-0.77759 0.41149,-0.15582 2.21545,0.31588 1.14241,-4.32487 3.34946,-5.16065 1.4589,-0.55246 3.07184,0.20544 1.61294,0.75791 2.16541,2.2168 0.33998,0.89779 0.10357,1.62889 -0.95469,3.0134 -1.61013,5.91347 z m -3.44481,0.27797 q 0.5204,-1.22359 0.95359,-3.35515 0.45644,-2.18313 0.49054,-3.22257 0.0715,-1.05361 -0.21181,-1.80176 -0.29748,-0.78556 -0.84155,-1.0928 -0.50666,-0.3214 -1.03036,-0.12308 -1.15964,0.43914 -1.60522,1.63441 -0.44558,1.19526 0.16465,3.14555 1.12376,1.49919 1.44957,2.35956 0.31165,0.82297 0.63059,2.45584 z m -4.57441,7.12155 q -0.63924,-0.78446 -1.57443,-0.43032 -0.89778,0.33998 -1.71346,1.46153 -0.79243,1.06998 -0.36745,2.19221 0.15582,0.41149 0.51285,0.78955 1.02374,-1.92747 3.14249,-4.01297 z m 13.17642,9.38166 q -1.14547,0.47655 -1.23047,0.2521 -0.0283,-0.0748 0.25167,-0.35194 0.30325,-0.32869 0.46993,-0.90507 -0.19323,-0.39732 -0.57859,-0.8502 -2.93043,2.99168 -4.35192,3.52998 l -0.79973,0.26008 q -1.27186,0.48163 -1.67095,1.57375 -0.37586,1.04054 -0.10671,1.75129 0.48164,1.27186 3.08931,1.26812 2.62185,0.0337 3.96852,-0.47629 1.38409,-0.52414 1.58995,-2.01357 0.22004,-1.45203 -0.63101,-4.03825 z"
       id="text14"
       aria-label=" 段错误大学" />
    <path
       style="fill:#eaeaea;fill-opacity:1;stroke:none;stroke-width:2;stroke-linejoin:bevel;stroke-dasharray:none;stroke-opacity:1"
       d="m 260,480 10,-20 h 60 l 10,20"
       id="path15" />
    <path
       style="font-weight:bold;font-size:20.529px;font-family:'Courier New';-inkscape-font-specification:'Courier New';text-align:center;text-anchor:middle;fill:#003050;stroke-width:2.0529;stroke-linejoin:bevel"
       d="m 321.15563,419.45077 h 4.50075 q 0.37088,-0.30072 0.70167,-0.30072 0.47112,0 0.74177,0.31075 0.28067,0.31074 0.28067,1.06253 v 0.98235 h -9.36235 v -2.1752 q 5.55326,-4.58093 6.70601,-5.89406 0.58139,-0.67161 0.58139,-1.27304 0,-0.7518 -0.66158,-1.32316 -0.65156,-0.58139 -1.74416,-0.58139 -1.10264,0 -1.83438,0.64153 -0.38091,0.34082 -0.61146,1.01242 -0.14034,0.421 -0.39093,0.60144 -0.24058,0.18043 -0.60144,0.18043 -0.42101,0 -0.73175,-0.30072 -0.30071,-0.30072 -0.30071,-0.70168 0,-0.60143 0.55131,-1.50359 0.56134,-0.90215 1.62388,-1.44344 1.07256,-0.54129 2.32555,-0.54129 1.94464,0 3.18761,1.18282 1.24296,1.1728 1.24296,2.8468 0,0.85203 -0.36086,1.58378 -0.35084,0.72172 -1.70407,2.00478 -1.06253,1.01242 -4.13988,3.62866 z m 18.7247,-5.5733 v 2.25538 q 0,2.00479 -1.16278,3.83917 -1.15275,1.83437 -3.30789,1.83437 -1.24297,0 -2.10503,-0.54129 -0.85203,-0.55131 -1.62388,-2.01481 -0.76181,-1.47351 -0.76181,-3.11744 v -2.25538 q 0,-1.99476 1.15275,-3.82914 1.15275,-1.8444 3.30789,-1.8444 1.23295,0 2.08498,0.54129 0.86206,0.54129 1.6339,2.01481 0.78187,1.46349 0.78187,3.11744 z m -2.06493,0 q 0,-1.674 -0.93223,-2.92699 -0.53127,-0.69165 -1.49356,-0.69165 -0.93223,0 -1.52364,0.76182 -0.89213,1.15275 -0.89213,2.85682 v 2.25538 q 0,1.68402 0.94225,2.92699 0.52124,0.69165 1.49357,0.69165 0.9222,0 1.51361,-0.76182 0.89213,-1.15275 0.89213,-2.85682 z m 7.97904,5.5733 h 4.50074 q 0.37089,-0.30072 0.70168,-0.30072 0.47112,0 0.74177,0.31075 0.28067,0.31074 0.28067,1.06253 v 0.98235 h -9.36235 v -2.1752 q 5.55326,-4.58093 6.70601,-5.89406 0.58139,-0.67161 0.58139,-1.27304 0,-0.7518 -0.66158,-1.32316 -0.65156,-0.58139 -1.74416,-0.58139 -1.10264,0 -1.83438,0.64153 -0.38091,0.34082 -0.61146,1.01242 -0.14034,0.421 -0.39094,0.60144 -0.24057,0.18043 -0.60143,0.18043 -0.42101,0 -0.73175,-0.30072 -0.30072,-0.30072 -0.30072,-0.70168 0,-0.60143 0.55132,-1.50359 0.56134,-0.90215 1.62388,-1.44344 1.07256,-0.54129 2.32555,-0.54129 1.94464,0 3.18761,1.18282 1.24296,1.1728 1.24296,2.8468 0,0.85203 -0.36086,1.58378 -0.35084,0.72172 -1.70407,2.00478 -1.06253,1.01242 -4.13988,3.62866 z m 12.50986,-8.86115 v 2.44584 q 1.14273,-0.36086 2.07495,-0.36086 1.89453,0 3.14752,1.29308 1.25299,1.29309 1.25299,3.33797 0,2.10503 -1.27304,3.3079 -1.26302,1.19284 -3.87926,1.19284 -2.3055,0 -3.64871,-0.87208 -0.78187,-0.50119 -0.78187,-1.15275 0,-0.41098 0.30072,-0.7117 0.31074,-0.31074 0.73175,-0.31074 0.35084,0 0.76182,0.34081 0.41098,0.33079 0.86205,0.4611 0.64154,0.19046 1.64393,0.19046 1.86445,0 2.54608,-0.59141 0.68162,-0.60144 0.68162,-1.83438 0,-1.2129 -0.66158,-1.90455 -0.65155,-0.69165 -1.68402,-0.69165 -1.11265,0 -2.53605,0.72173 -0.32076,0.1704 -0.56134,0.1704 -0.44105,0 -0.74177,-0.32076 -0.29069,-0.32077 -0.29069,-0.83199 v -5.93416 h 6.285 q 0.74177,0 1.05251,0.29069 0.32077,0.28067 0.32077,0.74177 0,0.45108 -0.32077,0.74177 -0.31074,0.28067 -1.05251,0.28067 z"
       id="text15"
       transform="scale(0.87876328,1.1379629)"
       aria-label="2025" />
  </g>
</svg>
