<?xml version="1.0" encoding="UTF-8"?>
<svg version="1.1" xmlns="http://www.w3.org/2000/svg" width="2444" height="3268">
<path d="M0 0 C1.28382568 -0.01788574 2.56765137 -0.03577148 3.89038086 -0.05419922 C10.53078354 -0.04815974 16.16345966 0.4266838 22.44335938 2.60620117 C25.65081534 3.64460427 28.83767236 3.8585768 32.1875 4.125 C39.82373343 4.88844004 46.48218043 7.15354787 53.625 9.859375 C58.03105563 11.51480508 62.50547241 12.60739921 67.109375 13.57421875 C69.96185852 14.41136065 72.0930332 15.77165174 74.625 17.3125 C76.17145077 17.80372554 77.73578061 18.24189628 79.3125 18.625 C86.56828232 20.68728337 92.50561606 24.7350316 98.5625 29.125 C101.45881086 31.42048465 101.45881086 31.42048465 104.625 32.3125 C108.88920509 36.37318621 112.40455358 40.82669119 114.625 46.3125 C114.625 46.9725 114.625 47.6325 114.625 48.3125 C115.5221875 48.7146875 115.5221875 48.7146875 116.4375 49.125 C119.40732007 50.73718804 121.20457189 52.17861813 122.3984375 55.3984375 C122.59695313 56.15382813 122.79546875 56.90921875 123 57.6875 C124.89598952 63.70605135 128.51631801 66.51978324 133.5 70.125 C137.22183909 72.84453591 140.08155283 75.90010658 143.02734375 79.4296875 C144.74530204 81.51349787 144.74530204 81.51349787 147.375 84 C153.77947689 90.58237902 156.83740206 100.97027058 156.9375 110.0625 C156.625 113.3125 156.625 113.3125 155.625 115.3125 C155.3841334 117.68634196 155.15714084 120.06160012 154.9375 122.4375 C154.281309 128.21920366 153.12241303 131.93717679 149.20703125 136.28125 C146.59882439 139.63005881 145.359502 143.52730488 143.8984375 147.48046875 C142.5192831 150.54760661 140.77155197 152.74007901 138.625 155.3125 C135.54581245 161.59404261 133.77344441 168.25107421 131.875 174.96484375 C130.81726365 178.62835768 129.80046815 181.96858242 128.0625 185.375 C126.82316262 187.907559 126.24034521 189.72661864 125.6875 192.4375 C124.89539107 196.30563194 123.86907086 200.04400505 122.6875 203.8125 C122.36910156 204.8334375 122.05070312 205.854375 121.72265625 206.90625 C121.36042969 207.7003125 120.99820313 208.494375 120.625 209.3125 C119.635 209.6425 118.645 209.9725 117.625 210.3125 C116.76645246 212.13269684 116.76645246 212.13269684 116.25 214.4375 C115.01821387 218.98011869 113.59207298 223.42553569 112.0625 227.875 C110.21345593 233.30631146 108.78708176 238.69577147 107.625 244.3125 C107.295 244.6425 106.965 244.9725 106.625 245.3125 C106.16265392 248.21475166 105.78880357 251.1237868 105.41796875 254.0390625 C104.62932509 257.2946457 103.33883172 259.59987614 101.61206055 262.44189453 C99.86257272 265.75739681 99.18455587 269.28780034 98.4375 272.9375 C98.26806885 273.72584229 98.0986377 274.51418457 97.92407227 275.32641602 C96.78071727 280.88622668 96.13198965 286.34369763 95.99609375 292.02734375 C95.65395909 295.05613585 94.99592597 297.58221704 94.12890625 300.4921875 C92.50300492 306.2324566 92.19216543 311.56149728 92.125 317.5 C91.86438158 327.62854434 91.16345495 337.67005157 90.1875 347.75 C90.12146576 348.43840973 90.05543152 349.12681946 89.98739624 349.83609009 C89.30516543 356.91098738 88.56433305 363.97577224 87.70092773 371.03100586 C86.82441527 378.20638544 86.54256446 385.16227399 86.66113281 392.39013672 C86.72185089 398.41046636 86.29416389 404.32438315 85.6875 410.3125 C85.60048828 411.17987793 85.51347656 412.04725586 85.42382812 412.94091797 C84.76366937 419.03516125 84.76366937 419.03516125 83.625 421.3125 C83.50720511 422.87866152 83.44608162 424.44927257 83.4140625 426.01953125 C83.38795898 426.98834229 83.36185547 427.95715332 83.33496094 428.95532227 C83.30692383 430.00131592 83.27888672 431.04730957 83.25 432.125 C82.69330884 447.72989524 81.55317737 462.99205658 75.7109375 477.59765625 C74.74773821 480.89262937 74.40128046 483.48340952 74.1875 486.875 C73.70888304 493.9069455 72.06909177 500.45847351 70.25 507.25 C69.79367187 509.03760742 69.79367187 509.03760742 69.328125 510.86132812 C67.91823214 516.22675373 66.52738863 520.57189912 63.625 525.3125 C62.73749784 529.12958103 62.11226932 532.95145987 61.46875 536.81640625 C60.64545125 540.22775987 59.77804491 541.66483667 57.625 544.3125 C57.15771361 547.20589639 57.15771361 547.20589639 56.8359375 550.1171875 C56.21496038 556.57994933 54.38026751 562.23884661 52.1875 568.3125 C51.26689073 570.89400229 50.34718513 573.47581039 49.43017578 576.05859375 C48.76584005 577.91825034 48.08614129 579.77241113 47.40234375 581.625 C46.619864 584.33025662 46.46033317 586.51316382 46.625 589.3125 C55.35306207 587.92709332 63.29976825 585.06822451 71.56689453 582.05859375 C74.51436979 580.99009026 77.47168598 579.95393565 80.4375 578.9375 C81.80841797 578.46183594 81.80841797 578.46183594 83.20703125 577.9765625 C85.625 577.3125 85.625 577.3125 89.625 577.3125 C89.625 576.6525 89.625 575.9925 89.625 575.3125 C90.8315625 574.99796875 92.038125 574.6834375 93.28125 574.359375 C94.89595432 573.92753547 96.51053093 573.4952182 98.125 573.0625 C98.91648437 572.85753906 99.70796875 572.65257812 100.5234375 572.44140625 C105.26918638 571.15772008 109.45297506 569.52931709 113.79833984 567.23583984 C116.34463978 565.94873661 118.96684618 565.09585603 121.6875 564.25 C125.01023974 563.18555448 128.25305903 562.11476071 131.4375 560.6875 C134.7842371 559.24380949 138.12343879 558.31294606 141.625 557.3125 C142.68589844 556.84585938 143.74679687 556.37921875 144.83984375 555.8984375 C148.70187989 554.21574417 152.63447388 553.06419912 156.6875 551.9375 C165.20234287 549.50309124 173.6274972 546.80788956 181.8125 543.40234375 C185.81506838 541.74294561 189.50383563 540.99793486 193.8125 540.4375 C200.90644039 539.45817412 207.05354822 537.07250975 213.625 534.3125 C221.38696035 531.24287456 229.28239781 528.85989175 237.38818359 526.86791992 C238.91205716 526.48952958 240.43317334 526.09989868 241.95166016 525.70043945 C255.22896072 522.25599272 268.14768169 520.77511524 281.8125 520.4375 C282.92221664 520.40823929 282.92221664 520.40823929 284.05435181 520.37838745 C296.9072772 520.07174107 309.46589879 520.38827735 322 523.5 C322.89557617 523.71922119 323.79115234 523.93844238 324.71386719 524.16430664 C335.407554 526.88551922 345.36980588 530.36373206 354.390625 536.875 C357.92353067 539.14791834 361.7607642 540.55815239 365.65625 542.09765625 C368.38118078 543.21272661 370.95325159 544.45281049 373.5625 545.8125 C377.25741904 547.72772917 380.94179204 549.14454139 384.875 550.5 C392.77243146 553.43226103 399.00842899 558.22283 405.625 563.3125 C406.41777344 563.86679688 407.21054688 564.42109375 408.02734375 564.9921875 C408.55457031 565.42789063 409.08179688 565.86359375 409.625 566.3125 C409.625 566.9725 409.625 567.6325 409.625 568.3125 C410.285 568.3125 410.945 568.3125 411.625 568.3125 C416.04565246 574.55149965 419.23050656 581.28033125 421.65234375 588.50390625 C423.08846363 592.65077449 424.84100217 596.65373105 426.57421875 600.68359375 C428.06746212 604.41947773 428.74285717 607.70153416 428.87109375 611.71875 C428.90396484 612.54503906 428.93683594 613.37132812 428.97070312 614.22265625 C429.0318963 615.94908488 429.08918884 617.67565617 429.14257812 619.40234375 C429.19381836 620.64177734 429.19381836 620.64177734 429.24609375 621.90625 C429.28367798 623.03063477 429.28367798 623.03063477 429.32202148 624.17773438 C429.66187477 626.57231709 430.51980662 628.17598768 431.625 630.3125 C434.98998748 650.8389236 434.98998748 650.8389236 431.0625 658.375 C424.99402555 665.68828972 416.04524039 673.32909465 406.35546875 674.61328125 C404.85116724 674.74051073 403.34419514 674.84091032 401.8359375 674.90625 C399.49109654 675.188832 399.49109654 675.188832 397.34643555 676.81030273 C394.25217947 678.51829211 392.37932942 678.70606797 388.87109375 678.75390625 C387.76830078 678.78033203 386.66550781 678.80675781 385.52929688 678.83398438 C384.38525391 678.84751953 383.24121094 678.86105469 382.0625 678.875 C365.09271557 678.84869879 365.09271557 678.84869879 349.8125 685.25 C338.08089543 693.2048903 338.08089543 693.2048903 331.0546875 692.04296875 C327.79255465 691.06223106 324.7720014 689.61395381 321.6875 688.1875 C315.59567273 685.44585056 312.0861039 684.69722403 305.625 686.3125 C304.965 686.6425 304.305 686.9725 303.625 687.3125 C300.71617991 687.46451874 297.84733328 687.54398077 294.9375 687.5625 C293.75124023 687.5934375 293.75124023 687.5934375 292.54101562 687.625 C287.07113219 687.66113466 283.5524379 686.63699159 278.625 684.3125 C275.3637633 683.84581536 272.07973526 683.90478272 268.8828125 684.80078125 C265.51869473 685.56323701 262.12192997 685.59984849 258.6875 685.75 C244.54316059 686.26987891 244.54316059 686.26987891 231.625 691.3125 C228.8984375 692.0859375 228.8984375 692.0859375 226 692.6875 C220.60667187 693.94083212 215.87637505 695.81623896 210.90234375 698.2265625 C208.625 699.3125 208.625 699.3125 205.625 700.3125 C205.625 700.9725 205.625 701.6325 205.625 702.3125 C201.05072966 705.96175123 195.90858475 708.83245001 190.625 711.3125 C184.1814374 714.43996352 184.1814374 714.43996352 177.9375 717.9375 C174.08770941 720.22656467 170.02479161 721.87196613 165.7578125 723.21484375 C162.60200947 724.32055529 159.86937024 725.71257081 156.9375 727.3125 C151.97898198 729.85926359 147.71137761 730.97758483 142.23828125 731.76171875 C135.8662208 733.10470907 131.45215524 736.20237795 127.625 741.3125 C126.965 741.3125 126.305 741.3125 125.625 741.3125 C125.295 742.3025 124.965 743.2925 124.625 744.3125 C122.0625 745.75 122.0625 745.75 118.625 747.3125 C110.59481256 750.99464705 110.59481256 750.99464705 103.625 756.3125 C100.81480604 756.51548351 98.00684134 756.63183064 95.19140625 756.73828125 C94.34449219 756.92777344 93.49757813 757.11726563 92.625 757.3125 C91.41928506 759.20309262 91.41928506 759.20309262 90.625 761.3125 C83.19197969 766.21829341 75.30475753 768.60467734 66.625 770.3125 C66.625 770.9725 66.625 771.6325 66.625 772.3125 C60.58705741 778.47597155 54.05678898 782.32703982 46.25683594 785.71313477 C40.88221763 788.07870457 36.21892737 791.09812572 31.41015625 794.4765625 C28.75305168 796.22809006 26.15268571 797.52337878 23.25 798.8125 C18.19818684 801.24094395 15.22104195 804.35056166 12.625 809.3125 C11.96249218 811.31950897 11.50756839 813.27306866 11.109375 815.34765625 C10.625 817.3125 10.625 817.3125 8.75 820.75 C5.21966198 827.31961399 4.16966943 835.08213248 2.625 842.3125 C1.965 842.3125 1.305 842.3125 0.625 842.3125 C0.47804688 843.2096875 0.33109375 844.106875 0.1796875 845.03125 C-1.73694332 855.69388581 -4.28879716 867.18319574 -10.375 876.3125 C-11.035 876.3125 -11.695 876.3125 -12.375 876.3125 C-12.51035156 877.2096875 -12.64570312 878.106875 -12.78515625 879.03125 C-16.6821161 901.6196161 -16.6821161 901.6196161 -23.375 908.3125 C-23.478125 909.446875 -23.58125 910.58125 -23.6875 911.75 C-24.375 915.3125 -24.375 915.3125 -26.4375 916.75 C-27.076875 916.935625 -27.71625 917.12125 -28.375 917.3125 C-28.375 917.9725 -28.375 918.6325 -28.375 919.3125 C-29.035 919.3125 -29.695 919.3125 -30.375 919.3125 C-30.601875 920.1375 -30.82875 920.9625 -31.0625 921.8125 C-32.16718054 924.75831477 -33.01845632 926.25581428 -34.8125 928.6875 C-37.43118902 932.63067046 -38.03182532 936.52725509 -38.6875 941.125 C-39.71792076 948.00262462 -41.81471086 952.01894554 -46.31640625 957.4375 C-49.18280056 961.4406617 -50.72930306 965.72114349 -52.29614258 970.36352539 C-53.95552975 975.05926425 -53.95552975 975.05926425 -56.484375 976.5859375 C-57.10828125 976.82570313 -57.7321875 977.06546875 -58.375 977.3125 C-59.46385464 979.99063829 -59.46385464 979.99063829 -60.375 983.3125 C-60.98891784 984.60947057 -61.61517801 985.90063217 -62.25 987.1875 C-64.50947212 992.10812816 -65.68693871 997.18819122 -66.80419922 1002.46435547 C-67.90977566 1007.37708672 -69.77586155 1010.99970113 -72.375 1015.3125 C-73.96940577 1020.17963342 -74.4558268 1024.45349629 -74.6875 1029.5625 C-75.13435095 1036.5821222 -77.4829515 1041.98558774 -80.375 1048.3125 C-82.06684295 1052.759834 -83.36997096 1057.13785031 -84.25 1061.8125 C-84.93244455 1065.12804308 -85.96463985 1067.50644879 -87.75 1070.375 C-93.26535085 1079.71367665 -94.45713853 1091.32004789 -95.8203125 1101.890625 C-96.58618625 1106.61531096 -97.92353076 1111.09560101 -99.29296875 1115.67578125 C-102.22243678 1125.52175503 -104.56561983 1134.97073389 -105.1015625 1145.28125 C-105.54081582 1150.15068681 -106.96622382 1154.65099977 -108.375 1159.3125 C-108.66375 1160.570625 -108.9525 1161.82875 -109.25 1163.125 C-110.16296271 1166.87658626 -111.48311486 1170.43942946 -112.8125 1174.0625 C-114.79576718 1179.4888586 -116.3657841 1184.85484558 -117.6015625 1190.49609375 C-118.375 1193.3125 -118.375 1193.3125 -119.87109375 1196.7109375 C-121.39079248 1200.35031992 -122.14332466 1203.62210813 -122.8125 1207.5 C-124.41780798 1216.18850036 -127.06307475 1224.24903547 -130.5 1232.375 C-131.86793402 1235.70539321 -132.70865634 1238.75587217 -133.25 1242.3125 C-134.09509278 1247.62668703 -135.62229977 1252.5933532 -137.3125 1257.6875 C-137.56563965 1258.4609375 -137.8187793 1259.234375 -138.07958984 1260.03125 C-139.46729793 1264.12396388 -141.01973768 1267.65916696 -143.375 1271.3125 C-144.41094315 1273.99376463 -145.25050091 1276.57645046 -145.73046875 1279.4140625 C-146.78139589 1285.46990005 -148.97622455 1289.92567774 -153.375 1294.3125 C-154.035 1294.3125 -154.695 1294.3125 -155.375 1294.3125 C-154.9625 1295.3025 -154.55 1296.2925 -154.125 1297.3125 C-153.44438012 1299.67103695 -153.21751852 1300.87853115 -154.0625 1303.20703125 C-154.79182577 1304.52357152 -155.53618876 1305.83185961 -156.29296875 1307.1328125 C-157.51633909 1309.59721917 -157.97563483 1311.79306848 -158.4375 1314.5 C-159.11642473 1318.40083947 -160.09055838 1321.02290406 -162.375 1324.3125 C-164.12626696 1327.53483121 -165.39699221 1330.39222176 -166.375 1333.9375 C-167.34651393 1337.2163595 -168.32071028 1338.68300916 -170.375 1341.3125 C-171.39029541 1343.63921865 -172.38988198 1345.9728447 -173.375 1348.3125 C-174.24125 1349.4571875 -174.24125 1349.4571875 -175.125 1350.625 C-176.58224855 1353.75808438 -176.2985499 1355.01683707 -175.8125 1358.375 C-175.4375 1361.01953125 -175.4375 1361.01953125 -175.375 1363.3125 C-177.3125 1365.5625 -177.3125 1365.5625 -179.375 1367.3125 C-179.375 1368.281875 -179.375 1369.25125 -179.375 1370.25 C-179.375 1374.24917622 -180.8687182 1375.29021901 -183.375 1378.3125 C-183.66375 1379.446875 -183.9525 1380.58125 -184.25 1381.75 C-185.35982848 1385.26445686 -185.7445061 1385.9097462 -188.3125 1388.1875 C-191.55615501 1391.13342822 -192.42861963 1393.88082412 -193.59765625 1398.03125 C-194.40853859 1400.41092482 -195.45078409 1402.12513393 -196.875 1404.1875 C-199.54677194 1408.17521931 -200.50469645 1412.14972624 -201.625 1416.77734375 C-202.60227722 1420.08074435 -204.43110515 1422.49071715 -206.375 1425.3125 C-207.02224659 1427.3306229 -207.49223508 1429.33887925 -207.9375 1431.41015625 C-208.4933335 1433.82703943 -209.38264671 1436.04426392 -210.375 1438.3125 C-211.035 1438.3125 -211.695 1438.3125 -212.375 1438.3125 C-212.47296875 1439.09753906 -212.5709375 1439.88257812 -212.671875 1440.69140625 C-213.65369092 1447.58950946 -214.54062472 1453.79033848 -219.91015625 1458.72265625 C-221.68771149 1460.6518962 -222.17178781 1462.16765631 -222.875 1464.6875 C-223.12378906 1465.56535156 -223.37257813 1466.44320312 -223.62890625 1467.34765625 C-224.71031461 1471.64498057 -225.59112853 1475.98194354 -226.43359375 1480.33203125 C-227.77840573 1484.5896725 -230.26510234 1487.20260234 -233.375 1490.3125 C-233.045 1490.6425 -232.715 1490.9725 -232.375 1491.3125 C-232.685529 1496.69500268 -233.81521051 1499.33391175 -237.375 1503.3125 C-239.41901341 1506.37852011 -240.88916688 1509.49112242 -242.3125 1512.875 C-243.56447771 1515.83024971 -244.21813732 1517.17683498 -246.6875 1519.3125 C-248.60540412 1521.13874592 -248.60540412 1521.13874592 -248.33203125 1523.37109375 C-248.10942481 1524.96600344 -247.86962293 1526.55860119 -247.61328125 1528.1484375 C-247.29466108 1531.04213541 -248.11118996 1532.71836359 -249.375 1535.3125 C-249.86709007 1537.34943022 -250.30312204 1539.39070123 -250.71484375 1541.4453125 C-251.375 1543.3125 -251.375 1543.3125 -252.76171875 1544.6953125 C-254.94323536 1546.88211123 -255.94006167 1549.2726854 -257.25 1552.0625 C-259.60169317 1556.882886 -261.97699244 1561.15937964 -265.375 1565.3125 C-266.035 1565.3125 -266.695 1565.3125 -267.375 1565.3125 C-267.53355469 1566.25609375 -267.69210937 1567.1996875 -267.85546875 1568.171875 C-269.41755987 1576.76769134 -271.62654785 1584.3562992 -275.375 1592.3125 C-276.035 1592.3125 -276.695 1592.3125 -277.375 1592.3125 C-278.68274189 1594.82738825 -279.7403194 1597.27561477 -280.75 1599.9375 C-282.375 1603.3125 -282.375 1603.3125 -284.3515625 1604.2421875 C-287.03541406 1605.66183099 -287.35302357 1607.00206482 -288.375 1609.8125 C-289.88614121 1613.96813833 -290.07152383 1614.16076192 -294.375 1616.3125 C-294.375 1620.9325 -294.375 1625.5525 -294.375 1630.3125 C-295.695 1630.9725 -297.015 1631.6325 -298.375 1632.3125 C-299.4010734 1633.62587396 -300.40227325 1634.95914105 -301.375 1636.3125 C-302.365 1636.9725 -303.355 1637.6325 -304.375 1638.3125 C-304.54 1639.1375 -304.705 1639.9625 -304.875 1640.8125 C-305.04 1641.6375 -305.205 1642.4625 -305.375 1643.3125 C-308.375 1645.3125 -308.375 1645.3125 -311.375 1645.3125 C-310.92125 1646.075625 -310.4675 1646.83875 -310 1647.625 C-309.00127982 1653.51744905 -312.22551034 1657.46599121 -315.375 1662.3125 C-317.5625 1665.25 -317.5625 1665.25 -319.375 1667.3125 C-321.4323065 1669.7812678 -322.55404551 1671.74065229 -323.8125 1674.75 C-325.32308369 1678.19413081 -326.97216429 1680.45913259 -329.375 1683.3125 C-329.87 1684.199375 -330.365 1685.08625 -330.875 1686 C-332.375 1688.3125 -332.375 1688.3125 -334.39453125 1689.12109375 C-336.62084148 1690.15941549 -336.62084148 1690.15941549 -337.10546875 1692.7109375 C-337.25628906 1693.69320312 -337.40710938 1694.67546875 -337.5625 1695.6875 C-338.98047754 1702.27040132 -342.00496997 1706.45921321 -346.21875 1711.62109375 C-348.20233095 1714.0969765 -349.79285212 1716.57041966 -351.375 1719.3125 C-353.83929324 1722.71152516 -356.44046297 1725.2380393 -359.72265625 1727.84375 C-362.3932981 1730.21765387 -364.59640038 1732.98091804 -366.859375 1735.73828125 C-367.60960937 1736.51751953 -367.60960937 1736.51751953 -368.375 1737.3125 C-369.035 1737.3125 -369.695 1737.3125 -370.375 1737.3125 C-370.6225 1737.93125 -370.87 1738.55 -371.125 1739.1875 C-372.65892242 1741.79516811 -373.56414134 1742.24893186 -376.375 1743.3125 C-379.390625 1743.5078125 -379.390625 1743.5078125 -382.625 1743.4375 C-383.70265625 1743.41945313 -384.7803125 1743.40140625 -385.890625 1743.3828125 C-387.12039063 1743.34800781 -387.12039063 1743.34800781 -388.375 1743.3125 C-388.74625 1744.364375 -389.1175 1745.41625 -389.5 1746.5 C-391.30911103 1750.73554905 -393.64728904 1752.64984932 -397.375 1755.3125 C-398.096875 1755.60125 -398.81875 1755.89 -399.5625 1756.1875 C-401.74571256 1757.27880188 -401.74571256 1757.27880188 -402.5 1760.5625 C-403.88066297 1764.29796037 -405.76826886 1765.31717806 -409.25 1767.125 C-414.36144908 1769.89555356 -415.99450458 1772.59890863 -418.234375 1777.8515625 C-419.97420355 1781.60530217 -422.52637481 1784.35837017 -425.375 1787.3125 C-426.24125 1788.240625 -427.1075 1789.16875 -428 1790.125 C-430.09714793 1792.05658362 -431.75748065 1793.24610323 -434.375 1794.3125 C-434.375 1794.9725 -434.375 1795.6325 -434.375 1796.3125 C-435.15423828 1796.65861328 -435.15423828 1796.65861328 -435.94921875 1797.01171875 C-440.62343734 1799.19762874 -443.83562459 1801.46974956 -447.375 1805.3125 C-448.365 1805.9725 -449.355 1806.6325 -450.375 1807.3125 C-450.82875 1808.09625 -451.2825 1808.88 -451.75 1809.6875 C-453.60282348 1812.68052254 -455.58633042 1814.18779937 -458.375 1816.3125 C-461.19138743 1818.98445731 -463.73959755 1821.74635753 -466.1875 1824.75 C-468.9690253 1828.05620578 -472.05399968 1830.47688657 -475.5703125 1832.96484375 C-477.52761563 1834.3321328 -477.52761563 1834.3321328 -479.375 1836.5625 C-481.85369441 1838.73135761 -484.19283281 1839.03073569 -487.359375 1839.6875 C-490.65823947 1840.71040371 -492.83163738 1843.04558984 -495.375 1845.3125 C-497.35820018 1846.34541676 -499.35847806 1847.3462499 -501.375 1848.3125 C-502.426875 1849.01375 -503.47875 1849.715 -504.5625 1850.4375 C-507.375 1852.3125 -507.375 1852.3125 -510.375 1853.3125 C-511.07651152 1854.6278341 -511.74025925 1855.96367592 -512.375 1857.3125 C-514.76285661 1860.3180356 -516.83367254 1860.8704577 -520.5625 1861.5 C-521.46355469 1861.65855469 -522.36460937 1861.81710937 -523.29296875 1861.98046875 C-524.32357422 1862.14482422 -524.32357422 1862.14482422 -525.375 1862.3125 C-525.375 1862.9725 -525.375 1863.6325 -525.375 1864.3125 C-526.375 1865.3125 -527.375 1866.3125 -528.375 1867.3125 C-530.92508244 1870.94146347 -531.86367459 1873.91510149 -532.375 1878.3125 C-533.365 1878.6425 -534.355 1878.9725 -535.375 1879.3125 C-536.21224609 1880.2715625 -536.21224609 1880.2715625 -537.06640625 1881.25 C-540.15035396 1884.00520201 -543.36925254 1884.53607206 -547.3125 1885.3125 C-552.64225692 1886.36770394 -556.39255085 1887.33005085 -560.375 1891.3125 C-561.60069418 1893.22785486 -561.60069418 1893.22785486 -562.375 1895.25 C-564.48783808 1899.7429126 -566.69901376 1903.29581705 -571.5546875 1905.140625 C-573.13805972 1905.62861513 -574.72537756 1906.10398905 -576.31640625 1906.56640625 C-578.56014454 1907.21507651 -578.56014454 1907.21507651 -580.375 1909.3125 C-582.54592403 1911.48342403 -583.37739398 1911.69041199 -586.25 1912.4375 C-591.68181228 1914.04725894 -595.76722841 1917.19447048 -600.23779297 1920.55712891 C-603.14205628 1922.73885602 -606.01322763 1924.73279659 -609.19140625 1926.5 C-612.36964462 1928.08027851 -612.36964462 1928.08027851 -614.1875 1930.375 C-618.98285681 1934.62231603 -625.83583564 1935.25661481 -632 1936.0625 C-637.16711061 1936.92853685 -639.8360037 1938.8654522 -643.5234375 1942.4921875 C-650.46083691 1949.3125 -650.46083691 1949.3125 -654.375 1949.3125 C-654.77138672 1950.21742188 -654.77138672 1950.21742188 -655.17578125 1951.140625 C-656.43255074 1953.4167287 -657.52940162 1954.48068433 -659.5625 1956.0625 C-662.188707 1958.19862375 -664.20117506 1960.31400699 -666.25 1963 C-671.46702068 1969.23144137 -678.95266444 1973.12563652 -685.81201172 1977.31616211 C-687.35531229 1978.22075527 -687.35531229 1978.22075527 -688.375 1979.3125 C-690.04117115 1979.35313832 -691.70888095 1979.355221 -693.375 1979.3125 C-693.489646 1979.9094165 -693.60429199 1980.50633301 -693.72241211 1981.12133789 C-694.7864173 1984.69389555 -697.43401495 1987.08988161 -699.9375 1989.75 C-700.48543213 1990.33257568 -701.03336426 1990.91515137 -701.59790039 1991.51538086 C-707.53861618 1997.69550776 -712.43730227 2000.8358557 -720.75 2003.125 C-726.72148805 2004.8183039 -730.52401594 2007.36115033 -735.15625 2011.421875 C-737.13389207 2013.10704888 -738.96880299 2014.34457278 -741.25 2015.5625 C-744.1949858 2017.21169205 -746.05711091 2018.90876317 -748.375 2021.3125 C-749.035 2021.3125 -749.695 2021.3125 -750.375 2021.3125 C-750.375 2021.9725 -750.375 2022.6325 -750.375 2023.3125 C-751.035 2023.3125 -751.695 2023.3125 -752.375 2023.3125 C-752.57738281 2023.86035156 -752.77976562 2024.40820312 -752.98828125 2024.97265625 C-754.92388791 2028.23865171 -757.66257699 2030.37541654 -760.5625 2032.75 C-761.14894287 2033.23863525 -761.73538574 2033.72727051 -762.33959961 2034.23071289 C-765.30075831 2036.6789925 -768.28626181 2039.04826153 -771.4375 2041.25 C-774.35043634 2043.15819287 -774.35043634 2043.15819287 -776.375 2045.375 C-779.26813666 2048.17772614 -783.22829304 2051.3125 -787.375 2051.3125 C-787.643125 2051.89 -787.91125 2052.4675 -788.1875 2053.0625 C-789.39219859 2055.3450868 -790.78298115 2057.2862942 -792.375 2059.3125 C-794.025 2058.9825 -795.675 2058.6525 -797.375 2058.3125 C-796 2056.3125 -796 2056.3125 -794.375 2054.3125 C-793.715 2054.3125 -793.055 2054.3125 -792.375 2054.3125 C-791.7161331 2049.84234153 -791.26304126 2045.99544831 -792 2041.5 C-792.45801216 2037.60689661 -791.6784776 2037.26095133 -789.375 2034.3125 C-789.12436268 2030.64535151 -789.12436268 2030.64535151 -789.375 2027.3125 C-792.52237182 2028.01191596 -795.40088876 2029.07328698 -798.375 2030.3125 C-798.375 2030.9725 -798.375 2031.6325 -798.375 2032.3125 C-799.26251953 2032.53292969 -799.26251953 2032.53292969 -800.16796875 2032.7578125 C-806.21607076 2034.47456576 -808.623317 2036.3470372 -812.375 2041.3125 C-813.365 2041.3125 -814.355 2041.3125 -815.375 2041.3125 C-815.375 2039.9925 -815.375 2038.6725 -815.375 2037.3125 C-814.715 2036.9825 -814.055 2036.6525 -813.375 2036.3125 C-812.24397474 2033.97211814 -812.24397474 2033.97211814 -811.25 2031.25 C-810.89679687 2030.33089844 -810.54359375 2029.41179687 -810.1796875 2028.46484375 C-809.91414062 2027.75457031 -809.64859375 2027.04429688 -809.375 2026.3125 C-811.24555145 2025.65568223 -811.24555145 2025.65568223 -813.375 2025.3125 C-814.76236427 2026.19229198 -816.14212267 2027.08821951 -817.46484375 2028.0625 C-820.70162641 2030.18063998 -824.25604581 2031.61032687 -827.7890625 2033.1640625 C-828.64242187 2033.54304688 -829.49578125 2033.92203125 -830.375 2034.3125 C-831.10460937 2034.60898438 -831.83421875 2034.90546875 -832.5859375 2035.2109375 C-834.83724612 2036.59711443 -835.2579953 2037.95338608 -836.375 2040.3125 C-841.66597723 2045.28055374 -848.52542337 2050.03753024 -855.875 2050.5625 C-856.7 2050.48 -857.525 2050.3975 -858.375 2050.3125 C-858.705 2049.6525 -859.035 2048.9925 -859.375 2048.3125 C-856.60341883 2045.53567955 -853.82483715 2042.76645273 -851.03515625 2040.0078125 C-849.83589757 2038.81774857 -848.63667951 2037.62764371 -847.4375 2036.4375 C-846.84259766 2035.85097656 -846.24769531 2035.26445312 -845.63476562 2034.66015625 C-842.7126067 2031.75396541 -839.91377813 2028.81895997 -837.26953125 2025.65625 C-831.67540984 2019.02198759 -824.54502323 2013.68094549 -817.03125 2009.3828125 C-815.28517597 2008.34129605 -815.28517597 2008.34129605 -813.78125 2006.6796875 C-812.375 2005.3125 -812.375 2005.3125 -810.375 2005.3125 C-810.106875 2004.72082031 -809.83875 2004.12914063 -809.5625 2003.51953125 C-808.37167266 2001.30631596 -807.10266907 1999.80973335 -805.375 1998 C-803.03671098 1995.38267887 -802.38714681 1994.36482471 -801.5625 1990.8125 C-800.23341863 1986.89520753 -799.429662 1986.33064507 -796.1875 1984 C-789.17224753 1978.94406363 -785.200938 1972.59685123 -782.0625 1964.625 C-779.4044115 1958.32764939 -775.04902517 1955.75708519 -769.375 1952.3125 C-767.07924397 1950.01674397 -767.05160401 1949.30407475 -766.75 1946.1875 C-766.564375 1944.269375 -766.564375 1944.269375 -766.375 1942.3125 C-765.24964844 1942.23708984 -765.24964844 1942.23708984 -764.1015625 1942.16015625 C-760.30364684 1940.97942889 -759.63560518 1939.18972268 -757.75 1935.75 C-756.8528125 1934.12771484 -756.8528125 1934.12771484 -755.9375 1932.47265625 C-754.65649493 1929.88182349 -753.63801277 1927.42722122 -752.75 1924.6875 C-751.375 1921.3125 -751.375 1921.3125 -748.8125 1920.125 C-748.008125 1919.856875 -747.20375 1919.58875 -746.375 1919.3125 C-745.69406537 1917.65161161 -745.03043117 1915.98361705 -744.375 1914.3125 C-743.07139541 1912.36109191 -741.71404807 1910.44479686 -740.3125 1908.5625 C-739.59964844 1907.59828125 -738.88679687 1906.6340625 -738.15234375 1905.640625 C-736.375 1903.3125 -736.375 1903.3125 -735.375 1902.3125 C-735.313125 1901.219375 -735.25125 1900.12625 -735.1875 1899 C-734.375 1895.3125 -734.375 1895.3125 -731.6171875 1893.4921875 C-728.00512306 1891.06383574 -725.98296002 1888.34905461 -723.6875 1884.75 C-721.45965981 1881.34159492 -719.32582988 1878.14461833 -716.375 1875.3125 C-714.18712594 1871.79864166 -712.55510626 1868.88460222 -711.3125 1864.9375 C-711.003125 1864.07125 -710.69375 1863.205 -710.375 1862.3125 C-709.385 1861.9825 -708.395 1861.6525 -707.375 1861.3125 C-707.375 1860.6525 -707.375 1859.9925 -707.375 1859.3125 C-705.70833333 1857.64583333 -704.04166667 1855.97916667 -702.375 1854.3125 C-699.9984197 1851.14372627 -699.17578688 1848.51902563 -698.5 1844.6875 C-697.67203664 1840.56136853 -697.67203664 1840.56136853 -695.0625 1838.375 C-693.29137763 1837.67478883 -691.4984471 1837.02711068 -689.6875 1836.4375 C-686.59220952 1834.93168301 -686.4868651 1833.49984661 -685.375 1830.3125 C-684.694375 1829.52875 -684.01375 1828.745 -683.3125 1827.9375 C-681.11352448 1825.41397949 -681.11352448 1825.41397949 -681 1822.0625 C-680.250512 1817.56557202 -678.48018604 1815.06733966 -675.84765625 1811.42578125 C-674.33858655 1809.37419704 -674.33858655 1809.37419704 -673.33203125 1807.1875 C-672.375 1805.3125 -672.375 1805.3125 -670 1803 C-667.5941093 1800.53682619 -666.03081222 1798.21417443 -664.40234375 1795.19921875 C-661.88170164 1790.57005472 -659.03299879 1786.15476484 -655.875 1781.9375 C-653.83339509 1779.15581331 -652.35077932 1776.30508381 -650.875 1773.1875 C-648.90861835 1769.10633054 -646.78020949 1766.35926638 -643.375 1763.3125 C-640.83071272 1760.579747 -640.3579012 1759.22415619 -639.625 1755.4375 C-638.68449028 1751.07548078 -636.57426414 1749.2865462 -633.03125 1746.734375 C-631.13841354 1745.10939275 -630.34746713 1743.58807309 -629.375 1741.3125 C-628.715 1741.3125 -628.055 1741.3125 -627.375 1741.3125 C-627.10945312 1740.5803125 -626.84390625 1739.848125 -626.5703125 1739.09375 C-625.3824832 1736.32991189 -624.02919906 1734.22890058 -622.25 1731.8125 C-616.41079126 1723.65711243 -611.30741399 1715.03907861 -606.375 1706.3125 C-605.715 1705.3225 -605.055 1704.3325 -604.375 1703.3125 C-603.715 1703.3125 -603.055 1703.3125 -602.375 1703.3125 C-602.148125 1702.4875 -601.92125 1701.6625 -601.6875 1700.8125 C-600.37908352 1697.32338939 -598.79157386 1694.59037621 -596.77734375 1691.484375 C-595.35984806 1689.28903349 -594.01914881 1687.06083623 -592.6875 1684.8125 C-589.54212662 1679.54033271 -586.26992981 1674.35095422 -582.99316406 1669.15991211 C-580.261782 1664.80852717 -577.70607403 1660.41697153 -575.41015625 1655.81640625 C-574.375 1654.3125 -574.375 1654.3125 -571.375 1653.3125 C-571.29636719 1652.42175781 -571.21773437 1651.53101562 -571.13671875 1650.61328125 C-570.24051326 1646.72972415 -568.96628757 1645.30671509 -566.1875 1642.5 C-561.41400664 1637.45286689 -556.89815281 1632.24682136 -554.36328125 1625.69921875 C-553.03710096 1622.49646714 -550.81747003 1620.75497003 -548.375 1618.3125 C-547.63090103 1617.10464921 -546.92243065 1615.87416925 -546.25 1614.625 C-544.375 1611.3125 -544.375 1611.3125 -541.375 1609.3125 C-540.51416427 1606.75014614 -539.80826741 1604.30583415 -539.1875 1601.6875 C-539.01025391 1600.98109375 -538.83300781 1600.2746875 -538.65039062 1599.546875 C-538.21483596 1597.80465636 -537.79353749 1596.05888484 -537.375 1594.3125 C-536.715 1594.3125 -536.055 1594.3125 -535.375 1594.3125 C-535.1275 1593.260625 -534.88 1592.20875 -534.625 1591.125 C-533.57324979 1587.44019682 -531.83933182 1585.26969818 -529.375 1582.3125 C-528.51750707 1580.82617893 -527.68599522 1579.32469417 -526.875 1577.8125 C-521.94268285 1568.80240089 -521.94268285 1568.80240089 -517.375 1567.375 C-513.34055494 1565.94613404 -512.61477467 1563.90971386 -510.375 1560.3125 C-509.21269244 1559.12073303 -508.02332966 1557.95493551 -506.8125 1556.8125 C-502.30341695 1552.39013009 -500.50679323 1548.37671421 -499.4375 1542.1875 C-498.66707922 1537.9151666 -497.72724432 1536.17176722 -494.375 1533.3125 C-491.23761637 1528.35340974 -488.91896728 1523.15997728 -486.62109375 1517.765625 C-485.375 1515.3125 -485.375 1515.3125 -483.87109375 1513.8515625 C-481.10243516 1511.0033863 -480.20472036 1506.99316956 -478.8515625 1503.3203125 C-477.375 1500.3125 -477.375 1500.3125 -475 1497.96484375 C-471.66071635 1494.59077589 -469.84988779 1490.96787806 -467.75 1486.75 C-462.79557594 1476.94994835 -462.79557594 1476.94994835 -460.375 1474.3125 C-459.715 1474.3125 -459.055 1474.3125 -458.375 1474.3125 C-458.19324219 1473.69761719 -458.01148438 1473.08273437 -457.82421875 1472.44921875 C-457.57285156 1471.64097656 -457.32148437 1470.83273437 -457.0625 1470 C-456.81886719 1469.19949219 -456.57523438 1468.39898438 -456.32421875 1467.57421875 C-455.375 1465.3125 -455.375 1465.3125 -453.890625 1463.921875 C-451.01584618 1460.86927481 -450.57824199 1456.41055069 -449.53515625 1452.44140625 C-448.28881313 1449.08005662 -446.97830638 1447.69759552 -444.375 1445.3125 C-443.15419742 1443.38387583 -443.15419742 1443.38387583 -442.25 1441.375 C-441.78207031 1440.40240234 -441.78207031 1440.40240234 -441.3046875 1439.41015625 C-440.65376241 1437.94147232 -440.05616957 1436.44852647 -439.5 1434.94140625 C-438.14532766 1431.7758004 -436.37839227 1429.072427 -434.5 1426.1875 C-431.32403125 1421.20484671 -429.00424695 1416.30493523 -427.26171875 1410.65234375 C-426.30287668 1408.12218339 -424.99450022 1406.46635308 -423.375 1404.3125 C-422.55769642 1402.43623165 -421.79012644 1400.53783241 -421.0625 1398.625 C-418.82904735 1393.10904875 -416.28530678 1387.85350142 -412.375 1383.3125 C-411.715 1383.3125 -411.055 1383.3125 -410.375 1383.3125 C-409.91507684 1381.50040277 -409.45715964 1379.68779639 -409 1377.875 C-408.71898437 1376.77671875 -408.43796875 1375.6784375 -408.1484375 1374.546875 C-407.51567731 1371.90078691 -407.05299485 1369.30710109 -406.625 1366.625 C-405.64520283 1362.08230401 -403.23859163 1359.44357631 -400.3046875 1355.9375 C-392.60772465 1345.46713759 -387.73334651 1330.8726438 -383.8125 1318.5625 C-381.12105493 1310.15372487 -377.27367912 1302.05075471 -371.9375 1295 C-369.70435951 1291.92026595 -368.03288697 1288.77100406 -366.4140625 1285.3359375 C-365.3428542 1283.24990028 -364.09104248 1281.42137665 -362.75 1279.5 C-360.1215194 1275.44942351 -359.59137832 1271.59715251 -358.90234375 1266.87890625 C-358.14771817 1263.2063951 -356.81335846 1261.13185197 -354.375 1258.3125 C-353.715 1258.3125 -353.055 1258.3125 -352.375 1258.3125 C-352.19324219 1257.69503906 -352.01148438 1257.07757812 -351.82421875 1256.44140625 C-351.57285156 1255.59449219 -351.32148437 1254.74757813 -351.0625 1253.875 C-350.79179688 1252.9571875 -350.52109375 1252.039375 -350.2421875 1251.09375 C-349.4775241 1248.64131604 -348.60032396 1246.27442299 -347.6875 1243.875 C-345.91666936 1238.72852344 -346.10341643 1233.69387817 -346.375 1228.3125 C-345.385 1227.9825 -344.395 1227.6525 -343.375 1227.3125 C-342.82960385 1225.32749553 -342.82960385 1225.32749553 -342.625 1223 C-342.16015625 1220.49609375 -342.16015625 1220.49609375 -341.375 1218.3125 C-339.66561608 1217.40942925 -337.9510122 1216.51176025 -336.19140625 1215.7109375 C-331.9441068 1212.44097362 -330.71421274 1206.29162428 -329.375 1201.3125 C-329.05346011 1198.6615822 -328.88762234 1196.04378576 -328.7421875 1193.37890625 C-328.15367986 1190.0669856 -325.77537012 1188.54141511 -323.375 1186.3125 C-320.90720954 1181.22644405 -320.03477673 1176.06446232 -319.87890625 1170.453125 C-319.375 1168.3125 -319.375 1168.3125 -317.4921875 1165.9609375 C-315.08471916 1162.94938116 -314.12970398 1160.34249213 -312.9375 1156.6875 C-311.07225602 1151.20081309 -308.9491773 1145.99178478 -306.48828125 1140.75 C-305.53524485 1138.66335189 -304.70660813 1136.59640003 -303.9375 1134.4375 C-302.64113558 1130.82249523 -301.02375091 1127.40514318 -299.375 1123.9375 C-297.17869968 1119.25349832 -295.51334285 1114.7194467 -294.13671875 1109.74609375 C-293.01559228 1106.16423841 -291.40853682 1102.85612362 -289.8203125 1099.4609375 C-284.85037112 1088.63452466 -280.66005236 1077.54535247 -276.79833984 1066.28149414 C-275.35238958 1062.0692886 -273.85798376 1057.91762882 -272.125 1053.8125 C-270.26896618 1049.34691435 -269.15488905 1044.7838935 -268.0859375 1040.07421875 C-267.38755644 1037.36127693 -266.45825457 1034.89229904 -265.375 1032.3125 C-264.69474363 1030.31708132 -264.03009503 1028.31632009 -263.375 1026.3125 C-263.12492187 1025.59578125 -262.87484375 1024.8790625 -262.6171875 1024.140625 C-261.14210484 1019.87291011 -259.95212406 1015.81406765 -259.375 1011.3125 C-260.695 1010.6525 -262.015 1009.9925 -263.375 1009.3125 C-261.86615914 1005.54039784 -261.86615914 1005.54039784 -259.421875 1004.40625 C-255.56916459 1002.34754978 -254.72695183 998.27439745 -253.375 994.3125 C-251.03826176 986.39089496 -249.28125419 978.52371219 -248.375 970.3125 C-252.98730366 972.13820353 -257.05693946 974.24157244 -261.21484375 976.94140625 C-262.70276078 977.88581652 -264.21837392 978.7875037 -265.75390625 979.65234375 C-272.44888934 983.43464249 -277.74457463 988.11446122 -283.375 993.3125 C-292.72239824 1001.73121504 -305.31429178 1006.28594256 -316.9375 1010.6875 C-317.56720703 1010.92597656 -318.19691406 1011.16445312 -318.84570312 1011.41015625 C-323.30195506 1013.04175749 -327.77277161 1014.19119435 -332.375 1015.3125 C-333.179375 1015.6425 -333.98375 1015.9725 -334.8125 1016.3125 C-337.77004168 1017.46666261 -340.68786557 1018.05968143 -343.80078125 1018.65234375 C-346.59924136 1019.30335903 -346.59924136 1019.30335903 -349.98852539 1020.82885742 C-354.44101625 1022.50750831 -358.41095371 1022.74760234 -363.1328125 1022.7109375 C-363.95054138 1022.7150766 -364.76827026 1022.7192157 -365.61077881 1022.72348022 C-368.24091021 1022.72961797 -370.86997605 1022.71085776 -373.5 1022.6875 C-374.39495178 1022.68351196 -375.28990356 1022.67952393 -376.2119751 1022.67541504 C-386.60092566 1022.62090677 -396.93898022 1022.45930843 -407.25 1021.0625 C-408.05969238 1020.95341309 -408.86938477 1020.84432617 -409.70361328 1020.73193359 C-414.795245 1019.90306331 -419.32818907 1018.29193336 -424.06884766 1016.27246094 C-426.31222726 1015.33862983 -428.56167409 1014.55350826 -430.875 1013.8125 C-434.02322963 1012.79427888 -437.06850023 1011.64196845 -440.125 1010.375 C-449.87109328 1006.49155668 -458.14330783 1004.02132567 -468.62988281 1004.30615234 C-478.95217511 1004.51880257 -485.85960328 1000.71283945 -494.375 995.3125 C-500.51488337 991.71915842 -506.68039649 988.806275 -513.2734375 986.140625 C-517.00897127 983.93882424 -518.98254858 981.23203558 -521.3125 977.6875 C-522.17809418 976.42078475 -523.04528498 975.15515907 -523.9140625 973.890625 C-524.33204102 973.27638672 -524.75001953 972.66214844 -525.18066406 972.02929688 C-526.76038655 969.75852653 -528.45890436 967.59635744 -530.1875 965.4375 C-532.7721213 962.18099823 -534.98509782 958.84811736 -537.0390625 955.234375 C-538.86271873 952.61086954 -541.0924357 950.545154 -543.375 948.3125 C-546.60837485 944.84886967 -549.79710487 941.34492341 -552.98486328 937.83935547 C-554.25602698 936.44317391 -555.53206247 935.05143192 -556.80859375 933.66015625 C-564.22430273 925.52472508 -570.92580465 917.28028884 -576.71875 907.90625 C-578.2147495 905.56345833 -579.79472017 903.38000264 -581.5 901.1875 C-584.15750168 897.7504645 -586.21197113 894.15137048 -588.19921875 890.29296875 C-589.26759207 888.28964791 -589.26759207 888.28964791 -590.828125 886.9296875 C-593.00779895 884.65093747 -594.08840181 882.08966192 -595.4375 879.25 C-597.43063661 874.94607026 -597.43063661 874.94607026 -600.375 871.3125 C-600.766875 870.301875 -601.15875 869.29125 -601.5625 868.25 C-603.5987671 863.28853701 -606.9884737 859.41511996 -610.375 855.3125 C-611.09816406 854.40371094 -611.09816406 854.40371094 -611.8359375 853.4765625 C-613.89021599 850.92427711 -615.62242829 849.14754781 -618.375 847.3125 C-618.375 846.6525 -618.375 845.9925 -618.375 845.3125 C-619.11621094 845.07789063 -619.85742188 844.84328125 -620.62109375 844.6015625 C-627.6380306 841.31703887 -632.72284615 832.44016346 -635.375 825.3125 C-637.92215233 817.76656122 -639.70311981 810.14226606 -637.375 802.3125 C-634.99624198 798.7960751 -631.77530432 797.46976241 -627.875 795.9375 C-623.6909347 795.19034548 -620.60768067 795.63784215 -616.578125 796.85546875 C-613.77841644 797.43625936 -611.16911349 797.3691367 -608.3125 797.3125 C-604.91450501 797.24529614 -602.61402028 797.23282657 -599.375 798.3125 C-596.60096131 798.51777316 -593.84005213 798.6850677 -591.0625 798.8125 C-589.56625355 798.88221295 -588.07015011 798.95507439 -586.57421875 799.03125 C-585.58168091 799.07668945 -585.58168091 799.07668945 -584.5690918 799.12304688 C-582.375 799.3125 -582.375 799.3125 -579.49072266 799.81298828 C-560.42277687 802.86995561 -540.88776859 799.97936326 -522.375 795.3125 C-521.55499512 795.11495117 -520.73499023 794.91740234 -519.89013672 794.71386719 C-508.13333245 791.86268827 -496.98709625 787.64283065 -485.73876953 783.23193359 C-474.19786832 778.74287824 -462.3969045 774.80046831 -450.45703125 771.5078125 C-446.36020954 770.37721674 -442.88870852 769.12930764 -439.25 766.91015625 C-434.29513546 764.09877703 -429.30817444 762.64680067 -423.8125 761.25 C-417.94163049 759.7388966 -412.65281818 758.1123308 -407.29370117 755.26049805 C-404.09575672 753.68044736 -400.73137685 752.73487529 -397.3125 751.75 C-392.15302693 750.24245869 -387.31644182 748.46019379 -382.375 746.3125 C-379.93019141 745.52666867 -377.47477155 744.84006846 -375 744.15625 C-372.2220682 743.30948347 -372.2220682 743.30948347 -369.046875 741.87890625 C-364.64922284 740.00288655 -360.18298199 738.55844245 -355.62890625 737.11914062 C-352.52002619 736.11332649 -350.11639394 735.14009596 -347.375 733.3125 C-345.55396852 732.82632956 -343.717903 732.3952542 -341.875 732 C-336.53109887 730.73009828 -331.88122223 728.86411364 -326.94140625 726.49609375 C-324.68191937 725.45404729 -322.49368509 724.62323884 -320.125 723.875 C-315.50992606 722.41546248 -311.0635651 720.60318419 -306.58032227 718.78320312 C-301.44354513 716.711607 -296.26562049 714.77317052 -291.0625 712.875 C-281.78071683 709.48551605 -272.56922199 705.93196681 -263.375 702.3125 C-262.49070312 701.96703125 -261.60640625 701.6215625 -260.6953125 701.265625 C-256.8788804 699.76018119 -253.09270795 698.19565517 -249.32421875 696.57421875 C-233.2641453 689.68350394 -216.87671527 683.86078169 -200.375 678.125 C-199.41400391 677.79089111 -198.45300781 677.45678223 -197.46289062 677.11254883 C-193.28704639 675.66292401 -189.10937267 674.22031457 -184.921875 672.8046875 C-183.65620394 672.36992574 -182.39057497 671.9350414 -181.125 671.5 C-180.06796875 671.14292969 -179.0109375 670.78585937 -177.921875 670.41796875 C-174.2902083 668.84164716 -172.89546265 667.50458909 -171.3125 663.87890625 C-168.36607398 654.4380662 -166.94955469 644.96187153 -165.70043945 635.16918945 C-165.375 633.3125 -165.375 633.3125 -164.375 631.3125 C-163.93300782 627.65027909 -163.56073356 623.98841773 -163.21289062 620.31640625 C-162.75413945 615.81840688 -162.01131912 611.5978786 -160.84106445 607.23291016 C-160.0875336 604.12799991 -159.78734396 600.9844186 -159.4375 597.8125 C-158.82876834 592.99020385 -158.08896058 588.84516406 -156.1640625 584.40234375 C-154.71856541 580.57392324 -153.9859592 576.55065629 -153.12109375 572.55859375 C-152.60105053 570.29599734 -152.00769691 568.04954245 -151.359375 565.8203125 C-150.41809125 562.46605532 -149.77983276 559.18075954 -149.1875 555.75 C-146.81779906 543.12784809 -142.69362895 530.62262463 -137.6875 518.8125 C-135.00343995 512.18129283 -133.94747026 505.30698925 -132.89379883 498.26367188 C-132.06902595 493.03995385 -130.83105304 488.73241303 -128.55004883 483.97412109 C-126.12043098 478.4707565 -124.36498665 472.68367636 -122.48339844 466.97387695 C-121.749844 464.74952696 -121.00827229 462.5279692 -120.265625 460.30664062 C-119.7885866 458.8699496 -119.31200838 457.43310567 -118.8359375 455.99609375 C-118.61819672 455.34378281 -118.40045593 454.69147186 -118.17611694 454.01939392 C-117.10078662 450.74392551 -116.13772378 447.46621412 -115.31591797 444.11987305 C-114.60469751 441.2419584 -113.83760857 438.50193195 -112.859375 435.7109375 C-112.5806958 434.90197021 -112.3020166 434.09300293 -112.01489258 433.25952148 C-111.57439575 431.98637085 -111.57439575 431.98637085 -111.125 430.6875 C-108.22877817 422.18113014 -105.74806763 413.61765285 -103.43896484 404.93554688 C-101.41793121 397.36382547 -99.07326956 389.95933993 -96.3828125 382.59765625 C-93.93840424 375.69078175 -92.36753159 368.79802008 -90.94091797 361.62988281 C-89.89373056 356.47558406 -88.5923881 351.50958387 -87 346.5 C-84.17443129 337.47683437 -82.44953904 328.2429216 -80.69384766 318.96166992 C-79.46769123 312.54052776 -78.1249217 306.19106013 -76.56285095 299.84434509 C-73.72280141 288.30069731 -71.61300828 276.74684978 -69.8125 265 C-69.51291717 263.0804758 -69.21327432 261.16096097 -68.91357422 259.24145508 C-67.12380723 247.68099532 -65.46070143 236.10670755 -64 224.5 C-63.8445874 223.27047607 -63.6891748 222.04095215 -63.52905273 220.77416992 C-62.63476591 213.36093566 -62.04466699 205.97503619 -61.64038086 198.5222168 C-61.41834911 195.83679688 -61.04175435 193.51703488 -60.3125 190.9375 C-59.34677848 187.20337679 -59.28051537 184.2041704 -59.5 180.390625 C-59.375 178.3125 -59.375 178.3125 -58.43310547 176.57250977 C-54.0742519 167.26242498 -54.82437033 154.32320862 -54.25 144.125 C-54.18696182 143.04989166 -54.18696182 143.04989166 -54.12265015 141.95306396 C-53.6173166 133.28478931 -53.19620367 124.62289351 -53.1875 115.9375 C-53.18669434 115.1844458 -53.18588867 114.4313916 -53.18505859 113.65551758 C-53.21769939 110.60432827 -53.40257716 108.22976853 -54.375 105.3125 C-57.13940454 104.39103182 -59.03258692 104.14036402 -61.90234375 104.03125 C-62.77697266 103.99386719 -63.65160156 103.95648437 -64.55273438 103.91796875 C-65.91881836 103.86576172 -65.91881836 103.86576172 -67.3125 103.8125 C-69.11343102 103.74338111 -70.91422597 103.67059756 -72.71484375 103.59375 C-73.51269287 103.56345703 -74.31054199 103.53316406 -75.13256836 103.50195312 C-77.31749871 103.31735803 -79.25898252 102.86704628 -81.375 102.3125 C-83.43590656 102.1635188 -85.49881209 102.04105423 -87.5625 101.9375 C-92.45690523 101.59412859 -96.47935376 100.81165424 -101.0390625 99.07421875 C-104.89439742 97.81704432 -108.86726444 97.3251205 -112.87109375 96.7421875 C-115.375 96.3125 -115.375 96.3125 -117.375 95.3125 C-119.41436516 95.29866316 -121.45428475 95.3473332 -123.4921875 95.42578125 C-124.74 95.45607422 -125.9878125 95.48636719 -127.2734375 95.51757812 C-129.88605337 95.58815468 -132.49822075 95.67869371 -135.109375 95.79101562 C-144.32049954 95.96525469 -150.54791562 94.17909515 -158.375 89.3125 C-158.5 82.6875 -158.5 82.6875 -157.375 79.3125 C-155.7353125 78.508125 -155.7353125 78.508125 -154.0625 77.6875 C-149.30146272 75.13136933 -147.97251125 71.28619482 -146.375 66.3125 C-146.04524389 64.98332923 -145.73174566 63.64998029 -145.4375 62.3125 C-143.62935243 54.43526579 -139.65058582 49.14993074 -133.375 44.3125 C-132.1734402 42.82636025 -130.97195002 41.34016085 -129.7734375 39.8515625 C-124.74810992 34.32089471 -117.93609848 30.70578289 -111.375 27.3125 C-110.52550781 26.83941406 -109.67601562 26.36632812 -108.80078125 25.87890625 C-104.06955116 23.7155958 -99.17894664 22.3758833 -94.1875 20.9375 C-87.06937712 18.83723425 -80.30399168 16.61898081 -73.61328125 13.375 C-66.78825507 10.135197 -60.57751606 9.20310854 -53.0625 9 C-47.26209631 8.82953036 -43.07015821 8.08230161 -37.8125 5.375 C-26.00949132 -0.64193719 -12.965719 0.12234223 0 0 Z " fill="#000000" transform="translate(1342.375,850.6875)"/>
<path d="M0 0 C1.63197842 0.73469139 3.25541307 1.48838122 4.875 2.25 C6.23238281 2.87648438 6.23238281 2.87648438 7.6171875 3.515625 C10 5 10 5 11.00390625 7.0859375 C11.84947883 9.23619656 11.84947883 9.23619656 14.28515625 9.8359375 C15.20167969 10.01382813 16.11820313 10.19171875 17.0625 10.375 C22.17388919 11.59612823 25.65944049 13.47398897 29.890625 16.52734375 C31.86018825 17.90239069 33.77437592 18.96602669 35.9375 20 C39.21066128 21.57376239 42.36085772 23.297145 45.5 25.125 C46.3559375 25.62257813 47.211875 26.12015625 48.09375 26.6328125 C48.7228125 27.08398438 49.351875 27.53515625 50 28 C50 28.66 50 29.32 50 30 C50.556875 30.2475 51.11375 30.495 51.6875 30.75 C54.39870944 32.21551861 56.59618256 34.07694605 59 36 C60.31138904 36.70885894 61.63777017 37.39456452 63 38 C63 38.66 63 39.32 63 40 C63.556875 40.268125 64.11375 40.53625 64.6875 40.8125 C67.21225334 42.10899496 69.63714484 43.42476323 72 45 C72 45.66 72 46.32 72 47 C72.56203125 47.26296875 73.1240625 47.5259375 73.703125 47.796875 C76.20924404 49.10960402 78.44006319 50.61685996 80.75 52.25 C81.62785156 52.87003906 82.50570313 53.49007812 83.41015625 54.12890625 C85.69773851 55.78162405 87.94739224 57.47139406 90.1875 59.1875 C93.63702669 61.8080162 97.19252589 63.93761819 101 66 C101 66.66 101 67.32 101 68 C101.763125 68.28875 102.52625 68.5775 103.3125 68.875 C106 70 106 70 109 72 C109 72.66 109 73.32 109 74 C109.825 74.226875 110.65 74.45375 111.5 74.6875 C115.76077342 76.28529003 119.20714138 78.51905481 123 81 C124.89580701 82.18754203 126.79164147 83.37504022 128.6875 84.5625 C132.32797423 86.84372336 135.65499506 89.30754521 139 92 C142.28471071 94.17088872 145.39840111 95.82305915 149.1875 96.9375 C152 98 152 98 153.6875 100.25 C158.8699338 106.41289425 167.33542498 109.31639008 174.72265625 112.12890625 C176.74441797 112.90223878 178.71249685 113.74086719 180.6875 114.625 C184.09403373 116.03903287 187.44113504 117.03488408 191 118 C200.21656127 120.56830927 200.21656127 120.56830927 204.0625 122.6875 C207.07698576 124.03439789 208.03674106 124.0463019 211.1875 123.8125 C216.50189102 123.58920626 219.84598169 125.89041052 224.30859375 128.546875 C227.46066019 130.24871639 230.26025632 130.89519229 233.75390625 131.51171875 C237.18194004 132.25694349 240.2981426 133.64460742 243.52734375 134.9921875 C248.02182278 136.82406047 252.64972607 138.26755162 257.28125 139.7109375 C266.78908738 142.73911858 276.69457932 147.35082474 284.2421875 153.96484375 C287.88967123 156.65654208 291.70031577 158.02327797 295.9375 159.5625 C304.36364594 162.67996663 304.36364594 162.67996663 308.34765625 164.68359375 C311.03927202 166.19217453 311.03927202 166.19217453 314.5 166.5 C318 167 318 167 320.81958008 168.43310547 C324.04497511 170.02215785 326.87842638 170.82591527 330.38671875 171.5703125 C331.57201172 171.82683594 332.75730469 172.08335937 333.97851562 172.34765625 C335.20248047 172.60417969 336.42644531 172.86070312 337.6875 173.125 C340.12916828 173.64721387 342.57058713 174.17059572 345.01171875 174.6953125 C346.08897217 174.92234863 347.16622559 175.14938477 348.27612305 175.38330078 C351 176 351 176 354 177 C356.87697344 177.15756244 359.74607258 177.27671879 362.625 177.375 C369.29638509 177.66274754 375.79911388 178.26473976 382.375 179.4375 C383.06932129 179.5597998 383.76364258 179.68209961 384.47900391 179.80810547 C388.18239581 180.50973355 391.55674943 181.46449637 395 183 C393.54144353 186.68646141 391.69770955 188.16143971 388.375 190.25 C387.14910156 191.03117187 387.14910156 191.03117187 385.8984375 191.828125 C385.27195312 192.21484375 384.64546875 192.6015625 384 193 C384.06058594 193.60585937 384.12117188 194.21171875 384.18359375 194.8359375 C384.36052255 196.6052255 384.53479875 198.37477991 384.70703125 200.14453125 C384.89294491 201.95656975 385.09659562 203.76694591 385.32421875 205.57421875 C386.36197722 214.15931158 385.13575344 221.79991394 383.40234375 230.2265625 C382.55226641 236.0863189 383.07999732 241.77688916 383.8125 247.625 C383.96332031 248.89601563 384.11414062 250.16703125 384.26953125 251.4765625 C384.99235539 254.963126 386.06373409 257.06111969 388 260 C388 260.66 388 261.32 388 262 C388.598125 262.268125 389.19625 262.53625 389.8125 262.8125 C393.56716418 264.85074627 393.56716418 264.85074627 395 267 C395.84422778 273.87442621 393.77543707 278.79071927 391 285 C389.4631418 288.48685033 388.73780667 291.47195111 388.3125 295.25 C387.02335249 302.8518778 382.50395509 307.28294235 377.4296875 312.7890625 C374.74157392 316.02858399 373.5526219 319.54886629 372.4375 323.5625 C370.22245299 331.41300232 367.12409626 335.81846524 360 340 C359.34 340 358.68 340 358 340 C357.690625 340.8353125 357.690625 340.8353125 357.375 341.6875 C355.86290367 344.23057111 354.07145602 345.76444139 351.76171875 347.58203125 C349.82287606 349.14256317 348.01879223 350.81491873 346.1875 352.5 C340.2947033 357.66459939 333.55035367 360.88296202 326.3984375 363.95703125 C322.75504324 365.54137371 319.17051133 367.2528141 315.578125 368.94921875 C310.92239831 370.84678008 306.57962256 371.09986816 301.61621094 371.23999023 C293.89077649 371.47672713 287.81967043 372.09643299 281 376 C269.95514448 380.8021111 259.04831863 376.99832445 248.17431641 373.65820312 C246.19194868 373.05810618 244.19606449 372.50312979 242.19921875 371.953125 C235.77829145 370.14608202 231.17525092 368.20489137 226 364 C225.175 363.54625 224.35 363.0925 223.5 362.625 C221.14249759 361.09262343 219.50969058 359.56934193 217.5625 357.5625 C213.77479442 353.66821396 209.87353295 350.87941343 204.9375 348.5625 C201.64424144 346.81076672 199.59013457 344.658296 197 342 C195.67479497 341.31731862 194.34187818 340.6492959 193 340 C190.71274502 337.98998805 189.1117809 336.18954152 187.5625 333.5625 C186.02392813 330.81286977 186.02392813 330.81286977 183.3125 328.3125 C182.549375 327.549375 181.78625 326.78625 181 326 C181 325.34 181 324.68 181 324 C180.443125 323.773125 179.88625 323.54625 179.3125 323.3125 C176.33840412 321.62449964 174.27991135 319.53323483 172 317 C172 316.34 172 315.68 172 315 C171.4225 314.79375 170.845 314.5875 170.25 314.375 C167.16007799 312.48671433 165.95123623 310.04163295 164 307 C160.54264663 302.36690225 160.54264663 302.36690225 156 299 C154.99415635 297.00293251 153.99530242 295.0023419 153 293 C151.54270711 290.83309247 150.08286824 288.75620527 148.5 286.6875 C148.0678418 286.12208496 147.63568359 285.55666992 147.19042969 284.97412109 C143.46797794 280.27369188 139.22489052 276.6514316 134.48046875 272.984375 C129.52880783 269.02304627 126.06530187 264.51086875 123.0546875 258.9375 C121.80784415 256.64700259 120.47185552 254.42062833 119.125 252.1875 C118.61710937 251.33929687 118.10921875 250.49109375 117.5859375 249.6171875 C116.52301035 247.8630959 115.44464386 246.11827342 114.3515625 244.3828125 C113.82304688 243.53460937 113.29453125 242.68640625 112.75 241.8125 C112.27046875 241.05582031 111.7909375 240.29914062 111.296875 239.51953125 C110 237 110 237 109.0703125 233.69140625 C107.86109464 229.5209286 106.12450404 225.95957669 104.125 222.125 C103.40629608 220.7141808 102.68883772 219.30272636 101.97265625 217.890625 C101.63121582 217.21966797 101.28977539 216.54871094 100.93798828 215.85742188 C98.135606 210.30809225 95.64177688 205.25732461 95 199 C94.34 199 93.68 199 93 199 C92.56429688 198.11699219 92.12859375 197.23398438 91.6796875 196.32421875 C84.91815223 181.79123029 84.91815223 181.79123029 75.640625 168.8828125 C72.82781062 165.65477314 70.41452058 162.13119551 67.9296875 158.6484375 C66.6158012 156.84516844 65.25230493 155.07725472 63.84765625 153.34375 C61.7718592 150.71060364 60.4981399 147.99627979 59 145 C56.87692855 141.70063221 54.69450077 138.67407428 51.875 135.9375 C50 134 50 134 48.68359375 131.2109375 C46.88412086 127.77899617 44.87096069 125.46989011 42.1875 122.6875 C38.48908339 118.7268223 35.37894497 114.8141567 32.48828125 110.24609375 C30.21428523 106.81420999 27.60872658 103.67107837 25.01171875 100.48046875 C23.09550136 98.11775411 21.22951923 95.72378439 19.375 93.3125 C17.30386393 90.63082496 15.18288121 88.03698916 12.9375 85.5 C10.12993208 82.27539281 7.81582306 78.82990136 5.50390625 75.23828125 C4.08535095 73.12702881 2.55259785 71.2120754 0.9375 69.25 C-1.69268149 65.83898338 -3.09580179 62.41758695 -4.5625 58.375 C-7.4924164 50.33627367 -11.12541805 46.54805746 -17.9921875 41.57421875 C-21.06314431 39.16644522 -24.11589365 36.45288109 -26 33 C-25.65234375 30.7890625 -25.65234375 30.7890625 -25 29 C-21.48042976 29.31055031 -20.07224849 29.93635252 -17.375 32.3125 C-10.22675129 38.59429432 0.56275622 40.01387829 9.59375 42.16796875 C13 43 13 43 16 44 C16 44.66 16 45.32 16 46 C17.32 46 18.64 46 20 46 C19.34938905 44.32700041 18.67966676 42.66140763 18 41 C17.71125 40.278125 17.4225 39.55625 17.125 38.8125 C15.70695301 36.52786874 14.40222811 36.16679651 12 35 C9.25 32.5 9.25 32.5 7 30 C7 29.34 7 28.68 7 28 C5.68 27.34 4.36 26.68 3 26 C3.33 25.01 3.66 24.02 4 23 C7.38361519 23.61728115 9.52002561 24.86979718 12.25 26.9375 C12.95640625 27.46214844 13.6628125 27.98679687 14.390625 28.52734375 C14.92171875 29.01332031 15.4528125 29.49929687 16 30 C16 30.66 16 31.32 16 32 C17.32 32.33 18.64 32.66 20 33 C20 33.66 20 34.32 20 35 C23.58327753 36.00217064 23.58327753 36.00217064 27 35 C26.40062452 30.91245571 24.24610479 28.26111194 21.8125 25 C21.05582031 23.96875 20.29914063 22.9375 19.51953125 21.875 C16.9120662 18.89966004 14.34402818 17.07859675 11 15 C9.29220027 13.37550757 7.62449243 11.70779973 6 10 C4.63875 8.7625 4.63875 8.7625 3.25 7.5 C0.81744092 4.79715657 0.5347489 3.48749283 0 0 Z " fill="#000000" transform="translate(1415,2087)"/>
<path d="M0 0 C1.98 0.99 3.96 1.98 6 3 C6 3.99 6 4.98 6 6 C4.35 5.67 2.7 5.34 1 5 C0.67 3.35 0.34 1.7 0 0 Z " fill="#000000" transform="translate(1405,2099)"/>
<path d="M0 0 C0 1.32 0 2.64 0 4 C-2.64 4.66 -5.28 5.32 -8 6 C-7.625 3.5625 -7.625 3.5625 -7 1 C-4.53721199 -0.231394 -2.7204945 -0.07159196 0 0 Z " fill="#000000" transform="translate(520,2897)"/>
</svg>
